<?xml version="1.0" standalone="no"?>
<!DOCTYPE svg PUBLIC "-//W3C//DTD SVG 20010904//EN"
 "http://www.w3.org/TR/2001/REC-SVG-20010904/DTD/svg10.dtd">
<svg version="1.0" xmlns="http://www.w3.org/2000/svg"
 width="736.000000pt" height="736.000000pt" viewBox="0 0 736.000000 736.000000"
 preserveAspectRatio="xMidYMid meet">

<g transform="translate(0.000000,736.000000) scale(0.100000,-0.100000)"
fill="#000000" stroke="none">
<path d="M3292 4787 c-204 -204 -372 -379 -372 -388 0 -9 25 -36 55 -59 72
-56 192 -183 240 -256 45 -68 86 -150 111 -219 22 -64 30 -233 14 -308 -30
-145 -150 -302 -281 -366 -165 -81 -373 -77 -528 11 -154 88 -261 282 -261
473 0 111 44 233 111 309 46 53 38 71 -56 123 -136 75 -818 440 -858 459 -34
17 -39 17 -54 2 -15 -15 -14 -27 6 -155 12 -76 63 -397 112 -713 49 -316 121
-780 160 -1030 39 -250 75 -461 81 -467 15 -19 3801 -19 3816 -1 9 11 75 416
172 1051 16 109 68 444 115 744 48 300 84 552 81 560 -3 7 -12 16 -21 19 -8 4
-152 -67 -342 -169 -589 -315 -638 -343 -641 -364 -2 -10 11 -37 29 -59 128
-160 144 -366 44 -570 -102 -209 -344 -321 -585 -270 -198 42 -356 189 -414
385 -21 71 -21 224 0 304 44 171 190 377 361 508 29 23 53 49 53 58 0 20 -740
761 -760 761 -8 0 -183 -168 -388 -373z"/>
</g>
</svg>
