<?xml version="1.0" standalone="no"?>
<!DOCTYPE svg PUBLIC "-//W3C//DTD SVG 20010904//EN"
 "http://www.w3.org/TR/2001/REC-SVG-20010904/DTD/svg10.dtd">
<svg version="1.0" xmlns="http://www.w3.org/2000/svg"
 width="100%" height="100%" viewBox="0 0 736.000000 736.000000"
 preserveAspectRatio="xMidYMid meet">

<g transform="translate(0.000000,736.000000) scale(0.100000,-0.100000)"
fill="#000000" stroke="none">
<path d="M2095 5104 c-22 -2 -64 -7 -92 -10 l-53 -5 0 -1178 0 -1178 48 10
c70 15 490 14 597 -1 369 -53 700 -183 968 -379 l47 -35 0 1150 0 1150 -52 47
c-78 69 -240 174 -349 228 -183 90 -386 151 -604 182 -105 15 -428 27 -510 19z"/>
<path d="M4805 5095 c-286 -40 -536 -122 -764 -251 -84 -47 -213 -139 -268
-191 l-33 -31 0 -1139 c0 -627 3 -1142 6 -1146 3 -3 31 14 62 37 360 273 915
425 1416 387 83 -6 161 -14 174 -17 l22 -6 0 1175 c0 930 -3 1178 -12 1184
-23 15 -495 13 -603 -2z"/>
<path d="M1590 3390 l0 -1140 947 0 948 0 -50 36 c-330 235 -841 367 -1291
333 -76 -6 -168 -16 -205 -24 -79 -17 -100 -12 -122 25 -16 26 -17 107 -17
969 l0 941 -105 0 -105 0 0 -1140z"/>
<path d="M5560 3590 c0 -667 -3 -946 -11 -963 -18 -40 -46 -46 -135 -31 -422
74 -906 3 -1289 -189 -92 -46 -255 -144 -255 -153 0 -2 428 -4 950 -4 l950 0
0 1140 0 1140 -105 0 -105 0 0 -940z"/>
</g>
</svg>
