<?xml version="1.0" encoding="UTF-8"?>
<svg version="1.1" xmlns="http://www.w3.org/2000/svg" width="1254" height="1254">
<path d="M0 0 C71.87764274 0.70545124 139.17611117 44.92282804 187.76171875 94.16796875 C192.41362801 98.95194073 196.65851301 103.92514001 200.6875 109.25 C201.09500488 109.78592773 201.50250977 110.32185547 201.92236328 110.87402344 C204.53558449 114.31448666 207.1215153 117.77409165 209.6875 121.25 C213.88785239 120.72248322 217.59465597 119.62897882 221.546875 118.13012695 C243.63924653 109.77830235 267.43566474 104.25051398 290.6875 100.25 C291.58936035 100.08693359 292.4912207 99.92386719 293.42041016 99.75585938 C346.01765074 90.33545808 421.20623791 81.89189324 471.6875 103.25 C471.6875 107.25 471.6875 107.25 470.1484375 108.92578125 C469.11589844 109.73595703 469.11589844 109.73595703 468.0625 110.5625 C464.66149982 113.36367651 461.83794467 116.25009669 459.04296875 119.64453125 C457.6875 121.25 457.6875 121.25 455.3125 123.5625 C444.24404518 134.89448946 434.9449193 148.780755 426.6875 162.25 C425.70931052 163.81311194 424.7302382 165.37567201 423.75 166.9375 C423.069375 168.030625 422.38875 169.12375 421.6875 170.25 C425.89708253 168.05369607 429.47985116 165.67187568 433.125 162.625 C439.29956157 157.57051896 446.03311279 153.53425505 452.83203125 149.39013672 C455.28772018 147.8811805 457.70611121 146.31711545 460.125 144.75 C470.84883076 137.92281645 481.76815869 131.50756987 493.203125 125.9453125 C496.18502322 124.49447861 499.13611976 122.994902 502.08447266 121.47753906 C528.16310263 108.16899529 555.4672274 97.99263835 583.6875 90.25 C584.904375 89.90582031 586.12125 89.56164062 587.375 89.20703125 C601.40317253 85.32847931 615.50624748 82.40629667 629.9375 80.5 C631.38382813 80.30845337 631.38382813 80.30845337 632.859375 80.11303711 C637.84457744 79.49032441 642.66424473 79.11123604 647.6875 79.25 C649.98183683 85.14972328 651.2823247 90.96516379 652.3125 97.1875 C652.43536377 97.92597168 652.55822754 98.66444336 652.68481445 99.42529297 C653.04619182 101.69716362 653.37526388 103.97087055 653.6875 106.25 C653.83324463 107.29450317 653.83324463 107.29450317 653.98193359 108.36010742 C658.08460666 142.66488106 654.3401645 178.78096303 645.29492188 212.01025391 C644.69743662 214.21336071 644.13489442 216.42301541 643.578125 218.63671875 C638.75959878 237.36307303 631.67690559 255.34817843 624 273.0625 C623.73018311 273.68612427 623.46036621 274.30974854 623.18237305 274.95227051 C619.96852164 282.35254761 616.57610518 289.60937704 612.83300781 296.75756836 C611.26275523 300.17417292 611.04747461 302.55207553 611.6875 306.25 C612.14253906 307.42433594 612.59757813 308.59867188 613.06640625 309.80859375 C616.31282218 318.29683105 617.8317539 327.37900651 619.6875 336.25 C619.85846191 337.0327832 620.02942383 337.81556641 620.20556641 338.62207031 C626.96775962 370.23514801 623.35839816 404.37149519 608.6875 433.25 C608.39423828 433.83330078 608.10097656 434.41660156 607.79882812 435.01757812 C602.43375943 445.54261229 595.87039156 454.47491915 588.21386719 463.44287109 C586.8120371 465.1025554 585.44861509 466.7840315 584.1015625 468.48828125 C580.40232612 473.15335921 576.78281145 477.32085462 572.12109375 481.03515625 C570.32669985 482.55574618 569.06940901 484.35896662 567.6875 486.25 C567.0275 486.25 566.3675 486.25 565.6875 486.25 C565.460625 486.806875 565.23375 487.36375 565 487.9375 C563.31199964 490.91159588 561.22073483 492.97008865 558.6875 495.25 C558.0275 495.25 557.3675 495.25 556.6875 495.25 C556.3575 496.24 556.0275 497.23 555.6875 498.25 C554.19140625 499.7578125 554.19140625 499.7578125 552.25 501.375 C549.06870625 504.06947656 545.95283364 506.81266639 542.875 509.625 C538.58141368 513.50033743 534.15661998 517.1722131 529.66015625 520.80859375 C526.34998057 523.52720058 523.11267546 526.32098579 519.875 529.125 C513.52750024 534.60286012 507.00839582 539.82407768 500.37255859 544.94726562 C498.76075659 546.19336465 497.15560175 547.44804745 495.55078125 548.703125 C488.57074738 554.13301333 481.45335864 559.34816643 474.26831055 564.50341797 C470.05142288 567.53122452 465.87696528 570.59986544 461.75 573.75 C450.72786043 582.0740915 439.14191566 589.66688461 427.6328125 597.296875 C425.45725527 598.73955221 423.28562439 600.18732316 421.1171875 601.640625 C414.30277592 606.20442949 407.45899964 610.71344092 400.54663086 615.12768555 C397.29166097 617.20842656 394.07041842 619.32910915 390.875 621.5 C388.1066045 623.36256021 385.3114908 625.04139246 382.375 626.625 C378.69998697 628.6127027 375.26744769 630.83813557 371.8125 633.1875 C367.16030068 636.33405706 362.43838371 639.08944672 357.48046875 641.71875 C354.60160022 643.2970947 351.83997197 644.99971059 349.0625 646.75 C339.43710936 652.74557465 329.47256198 658.1685123 319.55078125 663.65429688 C317.70636101 664.68219001 315.86967314 665.72414629 314.04296875 666.78320312 C313.25019531 667.24017578 312.45742188 667.69714844 311.640625 668.16796875 C310.95645508 668.56910889 310.27228516 668.97024902 309.56738281 669.38354492 C306.24525374 670.91474441 304.09457688 670.34513185 300.6875 669.25 C294.12342098 666.20146528 288.08269815 662.03182252 281.9453125 658.22265625 C279.06267893 656.47717669 276.15811948 654.83923812 273.1875 653.25 C268.14867951 650.54624266 263.30298923 647.59171282 258.44921875 644.5703125 C254.86023016 642.34387344 251.23550642 640.17972016 247.60766602 638.01733398 C236.85229024 631.60537615 226.23892406 624.99151998 215.6875 618.25 C215.02991699 617.83089355 214.37233398 617.41178711 213.69482422 616.97998047 C206.68752419 612.51221449 199.72780936 607.97853511 192.82421875 603.3515625 C190.53853183 601.82018073 188.24979665 600.29414327 185.95703125 598.7734375 C178.79974568 594.02384009 171.69791049 589.21487995 164.6875 584.25 C163.43513964 583.36944482 162.18251253 582.48926895 160.9296875 581.609375 C145.97484057 571.09638798 131.08749963 560.51567135 116.6875 549.25 C115.53666533 548.35780585 114.38561768 547.46588637 113.234375 546.57421875 C106.80277911 541.57571162 100.49976758 536.4581006 94.30517578 531.16870117 C88.52865852 526.24052695 82.58004424 521.53747121 76.625 516.828125 C75.614375 516.01859375 74.60375 515.2090625 73.5625 514.375 C72.63179688 513.63507812 71.70109375 512.89515625 70.7421875 512.1328125 C70.06414062 511.51148438 69.38609375 510.89015625 68.6875 510.25 C68.6875 509.59 68.6875 508.93 68.6875 508.25 C68.14867187 508.02957031 67.60984375 507.80914063 67.0546875 507.58203125 C63.89571657 505.8044585 61.42500223 503.41509972 58.8125 500.9375 C55.76728344 498.07530797 52.7276852 495.25216499 49.48828125 492.609375 C47.27518881 490.7450684 45.52542199 489.0628069 43.75 486.8125 C41.73569 484.37854209 39.6909519 482.31756764 37.25 480.3125 C32.39095612 476.2919637 28.46306942 471.49557309 24.5625 466.5625 C21.91828256 463.30129849 18.94498416 460.42076111 15.875 457.5625 C14.6875 456.25 14.6875 456.25 14.6875 454.25 C14.0275 454.25 13.3675 454.25 12.6875 454.25 C-3.08668141 435.74731154 -12.36239929 410.55039805 -12.515625 386.32421875 C-12.52259399 385.58342072 -12.52956299 384.84262268 -12.53674316 384.07937622 C-12.5540647 381.69869256 -12.56046408 379.31824408 -12.5625 376.9375 C-12.56350708 376.1259848 -12.56451416 375.3144696 -12.56555176 374.47836304 C-12.55569508 362.76587288 -12.03976226 351.68078616 -9.3125 340.25 C-9.05726563 338.96609375 -8.80203125 337.6821875 -8.5390625 336.359375 C-5.4304653 321.18373509 -0.64156588 305.59112077 5.78125 291.5 C6.09481445 290.7877124 6.40837891 290.0754248 6.73144531 289.34155273 C7.6875 287.25 7.6875 287.25 8.82324219 285.17602539 C10.58325379 281.42637968 10.99035118 279.23395019 9.75195312 275.21044922 C8.41284725 272.26381308 6.98751084 269.39633457 5.44488525 266.55117798 C3.72144783 263.36279265 2.10514912 260.1203748 0.4765625 256.8828125 C0.14715668 256.23353287 -0.18224915 255.58425323 -0.52163696 254.91529846 C-36.16795159 184.10070625 -38.89016574 96.98840647 -14.43359375 22.49609375 C-6.69946463 0.10215194 -6.69946463 0.10215194 0 0 Z M26.6875 140.25 C26.62183052 148.25056296 26.62062488 156.24942034 26.6875 164.25 C26.69330078 165.02682129 26.69910156 165.80364258 26.70507812 166.60400391 C27.20757776 201.6031038 38.01744019 246.74491029 57.6875 276.25 C57.734375 278.24609375 57.734375 278.24609375 57.4375 280.6875 C57.33050781 281.65558594 57.22351563 282.62367188 57.11328125 283.62109375 C56.97277344 284.81863281 56.83226562 286.01617188 56.6875 287.25 C56.32073899 290.58206279 55.97213289 293.91584454 55.625 297.25 C55.53379883 298.06782959 55.44259766 298.88565918 55.34863281 299.72827148 C54.25292295 310.14061621 54.68926079 320.12565569 56 330.5 C56.13607666 331.59610596 56.27215332 332.69221191 56.41235352 333.8215332 C61.70795841 375.16998247 78.72636556 418.10248297 111.6875 445.25 C112.48486572 445.91588135 112.48486572 445.91588135 113.29833984 446.59521484 C121.71252397 453.60279354 130.14901652 459.83040711 139.6875 465.25 C140.76515625 465.89324219 141.8428125 466.53648437 142.953125 467.19921875 C160.68692459 477.49201531 180.50662305 483.29844675 200.6875 486.25 C202.05343511 486.47495888 203.41932325 486.70020325 204.78515625 486.92578125 C226.28990735 490.20729017 248.31122815 488.59708976 269.6875 485.25 C269.15191214 479.20434918 267.26055518 474.33597934 264.8125 468.8125 C264.1052544 467.18946203 263.3995087 465.5657696 262.6953125 463.94140625 C262.35209961 463.15233887 262.00888672 462.36327148 261.65527344 461.55029297 C260.75867389 459.41917265 259.93918984 457.27767487 259.1484375 455.10546875 C257.73922879 451.27986198 256.03153479 447.63359643 254.1875 444 C253.85000732 443.33105713 253.51251465 442.66211426 253.16479492 441.97290039 C250.20393718 436.16055171 247.12257032 430.41432782 244 424.6875 C243.32324219 423.43888184 243.32324219 423.43888184 242.6328125 422.16503906 C239.93427463 417.26454176 236.99320076 412.76137586 233.6875 408.25 C232.75741138 406.58225489 231.8273813 404.91447681 230.8984375 403.24609375 C228.14289133 398.703887 224.85587316 394.50838389 221.6875 390.25 C220.64916016 388.82300781 220.64916016 388.82300781 219.58984375 387.3671875 C214.11732003 379.91819877 208.24683811 372.89334337 202.15478516 365.94677734 C201.10793154 364.73618955 200.07810485 363.5107907 199.06005859 362.27587891 C198.26269287 361.31367432 198.26269287 361.31367432 197.44921875 360.33203125 C196.72738403 359.44801636 196.72738403 359.44801636 195.9909668 358.54614258 C194.75750272 357.01496275 194.75750272 357.01496275 192.6875 357.25 C192.4503125 356.68796875 192.213125 356.1259375 191.96875 355.546875 C190.39802303 352.73105958 188.47278536 350.77044584 186.1875 348.5 C185.3934375 347.70078125 184.599375 346.9015625 183.78125 346.078125 C181.89966538 344.03076391 181.89966538 344.03076391 179.6875 344.25 C179.460625 343.67636719 179.23375 343.10273437 179 342.51171875 C177.32467192 339.62476947 175.31745166 338.113414 172.6875 336.0625 C168.89472655 333.05001067 165.24077545 329.97883528 161.6875 326.6875 C156.64101943 322.10123306 151.26200869 318.16603756 145.6875 314.25 C113.91050981 291.71126881 113.91050981 291.71126881 104.4375 281.92578125 C102.85057473 280.01945827 102.85057473 280.01945827 100.6875 280.25 C100.43613281 279.66605469 100.18476563 279.08210937 99.92578125 278.48046875 C98.52950562 275.96541076 96.99593297 274.5024257 94.875 272.5625 C87.96687901 265.82178098 82.40473982 257.99828681 76.6875 250.25 C76.01589844 249.35152344 75.34429687 248.45304687 74.65234375 247.52734375 C51.57387348 215.71942846 37.43864891 177.99847875 27.6875 140.25 C27.3575 140.25 27.0275 140.25 26.6875 140.25 Z M426.6875 369.25 C425.8728125 369.8378125 425.058125 370.425625 424.21875 371.03125 C420.36741619 373.84789711 417.02522563 376.82206557 413.6875 380.25 C412.759375 380.971875 411.83125 381.69375 410.875 382.4375 C410.153125 383.035625 409.43125 383.63375 408.6875 384.25 C408.6875 384.91 408.6875 385.57 408.6875 386.25 C408.12675781 386.48460937 407.56601562 386.71921875 406.98828125 386.9609375 C400.03758977 390.85521286 394.53049414 398.25300219 389.390625 404.26953125 C387.57137716 406.38503275 385.69263094 408.43851785 383.8125 410.5 C369.24697135 426.91423036 338.6875 462.56465769 338.6875 485.25 C353.05082366 488.07557187 367.22048147 488.58232099 381.8125 488.625 C382.69266785 488.63249268 383.57283569 488.63998535 384.47967529 488.64770508 C429.0682117 488.95846268 470.96793899 474.19846735 503.25 443 C533.47589486 412.08519586 546.19950883 370.9149503 545.85546875 328.46484375 C545.76641158 323.99319347 545.3387476 319.67327372 544.6875 315.25 C504.27547875 315.25 458.09481778 346.26113853 426.6875 369.25 Z " fill="#86BF3F" transform="translate(323.3125,282.75)"/>
<path d="M0 0 C0 0.66 0 1.32 0 2 C0.99 2.495 0.99 2.495 2 3 C1.40405533 3.01030746 0.80811066 3.02061493 0.19410706 3.03123474 C-6.15182705 3.14155722 -12.49768071 3.25589715 -18.84350586 3.37231445 C-21.1947253 3.41495935 -23.54596203 3.45666401 -25.8972168 3.49731445 C-42.27623413 3.78134366 -58.63463176 4.26988693 -75 5 C-75 4.01 -75 3.02 -75 2 C-50.06275332 -0.75169619 -25.05001195 -0.20004446 0 0 Z " fill="#7CBA34" transform="translate(727,376)"/>
<path d="M0 0 C2.83561144 1.35098777 5.39950525 2.87021897 7.984375 4.65234375 C9.12592041 5.43665771 9.12592041 5.43665771 10.29052734 6.23681641 C11.10215332 6.79804199 11.9137793 7.35926758 12.75 7.9375 C13.60416504 8.52450684 14.45833008 9.11151367 15.33837891 9.71630859 C19.16269053 12.34583435 22.98074151 14.98409019 26.7890625 17.63671875 C37.16393063 24.84455164 47.73004472 31.74988388 58.32568359 38.62744141 C59.55826922 39.43001149 60.7908539 40.23258305 62.0234375 41.03515625 C63.12606934 41.7506665 64.22870117 42.46617676 65.36474609 43.20336914 C68 45 68 45 70 47 C68.42578125 47.76953125 68.42578125 47.76953125 66 48 C63.56829423 46.65576513 61.43363385 45.29561004 59.1875 43.6875 C57.83619353 42.75223413 56.48462379 41.81734855 55.1328125 40.8828125 C54.44477539 40.40102539 53.75673828 39.91923828 53.04785156 39.42285156 C49.92070495 37.25010353 46.74003906 35.16047702 43.5625 33.0625 C36.36363345 28.27109241 29.22469449 23.39553567 22.12060547 18.46484375 C19.859837 16.90318006 17.58828047 15.35795448 15.31640625 13.8125 C13.77309935 12.75049123 12.23012236 11.68800285 10.6875 10.625 C9.60202881 9.89337646 9.60202881 9.89337646 8.49462891 9.14697266 C4.66806333 6.48966083 2.05254451 4.32528537 0 0 Z " fill="#7BB32A" transform="translate(468,850)"/>
<path d="M0 0 C0.99 0.33 1.98 0.66 3 1 C2.49375459 4.88121482 1.85449329 8.63631921 0.97094727 12.44921875 C-0.27089165 18.62599544 -0.23396215 24.6579514 -0.16015625 30.9375 C-0.15495468 32.13938965 -0.14975311 33.3412793 -0.14439392 34.57958984 C-0.12669986 38.38652097 -0.09551274 42.1931734 -0.0625 46 C-0.03488846 49.83536239 -0.01021412 53.67068805 0.00868225 57.50610352 C0.02095221 59.88553278 0.0385682 62.26494155 0.06199646 64.64428711 C0.06852737 65.71300049 0.07505829 66.78171387 0.08178711 67.8828125 C0.09004013 68.82527832 0.09829315 69.76774414 0.10679626 70.73876953 C0 73 0 73 -1 75 C-1.66 75 -2.32 75 -3 75 C-4.06407869 49.73235375 -4.68451041 24.98405551 0 0 Z " fill="#8FC23A" transform="translate(297,357)"/>
<path d="M0 0 C0.66 0 1.32 0 2 0 C2.309375 0.969375 2.61875 1.93875 2.9375 2.9375 C3.69523342 5.84065792 3.69523342 5.84065792 5 7 C5.28914558 11.82610258 5.24283952 16.66605687 5.25 21.5 C5.25233643 22.2040799 5.25467285 22.90815979 5.25708008 23.63357544 C5.27056556 34.34089157 4.60125297 44.57950447 2 55 C0.68 54.67 -0.64 54.34 -2 54 C-1.7834375 52.906875 -1.566875 51.81375 -1.34375 50.6875 C1.77480239 33.81324266 1.78726537 17.04136746 0 0 Z " fill="#7FBD33" transform="translate(941,631)"/>
<path d="M0 0 C0.66 0 1.32 0 2 0 C3.96945051 5.74820591 4.26605906 10.82233224 4.1953125 16.87109375 C4.1924826 17.793423 4.18965271 18.71575226 4.18673706 19.66603088 C4.17560974 22.58999013 4.15051912 25.51363451 4.125 28.4375 C4.11496057 30.42903201 4.1058364 32.42056886 4.09765625 34.41210938 C4.07569483 39.2748595 4.04121673 44.1373765 4 49 C3.34 49 2.68 49 2 49 C1.67 50.98 1.34 52.96 1 55 C0.67 55 0.34 55 0 55 C0 36.85 0 18.7 0 0 Z " fill="#78BE34" transform="translate(974,392)"/>
<path d="M0 0 C9.29204681 1.01174149 18.48704936 2.35165601 27.6875 4 C29.10313232 4.2489502 29.10313232 4.2489502 30.54736328 4.50292969 C34.90519908 5.30096474 38.96170194 6.09562365 43 8 C43 9.32 43 10.64 43 12 C40.6922298 11.46743765 38.50932002 10.82720371 36.27197266 10.03930664 C32.9374937 8.98014555 29.72245122 8.32431502 26.2734375 7.74609375 C24.99339844 7.53146484 23.71335937 7.31683594 22.39453125 7.09570312 C21.73275879 6.98750244 21.07098633 6.87930176 20.38916016 6.76782227 C18.40008863 6.44161454 16.41294588 6.10518403 14.42578125 5.76757812 C7.37209049 4.59902375 0.42364523 3.68574355 -6.72021484 3.32836914 C-9 3 -9 3 -11 1 C-7.37 1.33 -3.74 1.66 0 2 C0 1.34 0 0.68 0 0 Z " fill="#81BE2F" transform="translate(752,378)"/>
<path d="M0 0 C2.63725763 7.9117729 -0.59936619 15.2826129 -4.125 22.41015625 C-4.7479449 23.60784198 -5.37308297 24.80438865 -6 26 C-6.52787109 27.02843018 -6.52787109 27.02843018 -7.06640625 28.07763672 C-8.19006097 30.25104726 -9.33976974 32.40841768 -10.5 34.5625 C-10.85513672 35.24135254 -11.21027344 35.92020508 -11.57617188 36.61962891 C-14.08762268 41.14637138 -16.48463441 43.45037546 -21 46 C-19.71288761 43.3721002 -18.34682798 40.82642135 -16.86328125 38.3046875 C-9.74421833 26.00048032 -4.41476727 13.49899994 0 0 Z " fill="#7DBA35" transform="translate(938,690)"/>
<path d="M0 0 C0.43570312 0.37511719 0.87140625 0.75023437 1.3203125 1.13671875 C1.91585938 1.64847656 2.51140625 2.16023437 3.125 2.6875 C4.07439453 3.50541016 4.07439453 3.50541016 5.04296875 4.33984375 C6.81640213 5.8442533 8.62132079 7.29792354 10.4375 8.75 C11.283125 9.4925 12.12875 10.235 13 11 C13 11.66 13 12.32 13 13 C13.66 13 14.32 13 15 13 C15 13.66 15 14.32 15 15 C15.88945312 15.39638672 15.88945312 15.39638672 16.796875 15.80078125 C19.08029054 17.04370425 20.47426723 18.30401646 22.25 20.1875 C27.78587806 25.88933586 33.87525395 30.94708451 40 36 C38.265625 36.70703125 38.265625 36.70703125 36 37 C33.859375 35.63671875 33.859375 35.63671875 31.75 33.6875 C31.04359375 33.05199219 30.3371875 32.41648437 29.609375 31.76171875 C28 30 28 30 28 28 C27.46117187 27.77957031 26.92234375 27.55914063 26.3671875 27.33203125 C23.20821657 25.5544585 20.73750223 23.16509972 18.125 20.6875 C15.09917666 17.84353561 12.08121329 15.0362893 8.859375 12.4140625 C6.34911598 10.29474546 4.24300413 8.18674488 2.125 5.6875 C1.52945312 4.99011719 0.93390625 4.29273438 0.3203125 3.57421875 C-0.11539062 3.05472656 -0.55109375 2.53523437 -1 2 C-0.67 1.34 -0.34 0.68 0 0 Z " fill="#89BE2B" transform="translate(364,763)"/>
<path d="M0 0 C8.68248124 4.23477968 17.27861203 8.60540832 25.75 13.25 C26.5116748 13.66169434 27.27334961 14.07338867 28.05810547 14.49755859 C31.86823106 16.608216 35.21025246 18.56420566 38 22 C38 22.66 38 23.32 38 24 C32.98284601 22.25358624 28.6084108 19.5105164 24.0625 16.8125 C16.19144052 12.19056277 8.23534214 7.93630546 0 4 C0 2.68 0 1.36 0 0 Z " fill="#81BE31" transform="translate(415,307)"/>
<path d="M0 0 C2.08180928 3.42764626 2.25728714 6.1177798 2.265625 10.09375 C2.26820313 11.29 2.27078125 12.48625 2.2734375 13.71875 C2.26570312 14.9665625 2.25796875 16.214375 2.25 17.5 C2.25773438 18.716875 2.26546875 19.93375 2.2734375 21.1875 C2.22945664 41.77054336 2.22945664 41.77054336 -2 46 C-1.67 43.03 -1.34 40.06 -1 37 C-1.66 36.67 -2.32 36.34 -3 36 C-2.75443359 34.19208984 -2.75443359 34.19208984 -2.50390625 32.34765625 C-1.80401264 26.04861376 -1.89196082 19.76744583 -1.9375 13.4375 C-1.94201172 12.23802734 -1.94652344 11.03855469 -1.95117188 9.80273438 C-1.96286231 6.86843641 -1.97924862 3.93424551 -2 1 C-1.34 0.67 -0.68 0.34 0 0 Z " fill="#84BC35" transform="translate(870,602)"/>
<path d="M0 0 C-0.33 0.66 -0.66 1.32 -1 2 C-3.4608435 2.67169426 -5.88058662 3.23444742 -8.375 3.75 C-15.91969165 5.39346237 -23.19435302 7.54163212 -30.48974609 10.06933594 C-35.20701322 11.64751314 -39.02339489 12.29041197 -44 12 C-40.27124288 8.63112293 -36.01980858 7.4938494 -31.3125 6.0625 C-30.06231079 5.6766272 -30.06231079 5.6766272 -28.78686523 5.28295898 C-23.0838033 3.55474207 -17.35192938 1.97444751 -11.5625 0.5625 C-10.85971924 0.38662354 -10.15693848 0.21074707 -9.43286133 0.02954102 C-6.00265967 -0.76819008 -3.34262541 -1.30798385 0 0 Z " fill="#81BA32" transform="translate(868,597)"/>
<path d="M0 0 C0.66 0 1.32 0 2 0 C2 0.66 2 1.32 2 2 C2.66 2 3.32 2 4 2 C4 2.66 4 3.32 4 4 C4.99 4.33 5.98 4.66 7 5 C8.6875 6.4375 8.6875 6.4375 10 8 C10 8.66 10 9.32 10 10 C10.66 10 11.32 10 12 10 C13.3046875 11.2578125 13.3046875 11.2578125 14.875 13.125 C15.48214844 13.83914063 16.08929687 14.55328125 16.71484375 15.2890625 C17.46894531 16.18367187 18.22304688 17.07828125 19 18 C20.59094542 19.85860529 22.18539067 21.71417728 23.77978516 23.56982422 C26.19036274 26.37660278 28.59509813 29.18835775 31 32 C30.67 32.66 30.34 33.32 30 34 C23.67903872 28.65555465 18.19633234 23.11124075 13.10546875 16.578125 C10.09617111 12.89327075 6.72645988 9.67692852 3.25 6.4375 C1.11767389 4.12748005 0.33978908 3.05810168 0 0 Z " fill="#86BC31" transform="translate(507,627)"/>
<path d="M0 0 C0.99 0 1.98 0 3 0 C3 11.55 3 23.1 3 35 C2.01 35 1.02 35 0 35 C0 23.45 0 11.9 0 0 Z " fill="#7EBC33" transform="translate(311,641)"/>
<path d="M0 0 C1.96125349 2.94188023 2.71642586 5.04142503 3.65625 8.41015625 C3.95660156 9.48330078 4.25695312 10.55644531 4.56640625 11.66210938 C5.02853516 13.34530273 5.02853516 13.34530273 5.5 15.0625 C5.80808594 16.15755859 6.11617188 17.25261719 6.43359375 18.38085938 C8.23692235 24.87826007 9.79581533 31.36483028 11 38 C10.01 38 9.02 38 8 38 C6.63769741 33.92577325 5.31574463 29.83947656 4 25.75 C3.6184375 24.61046875 3.236875 23.4709375 2.84375 22.296875 C0.41546078 14.66510889 -0.52524256 7.99900646 0 0 Z " fill="#80BC30" transform="translate(303,470)"/>
<path d="M0 0 C3.93949966 1.69110229 7.07198611 4.32716034 10.375 7 C16.0067485 11.51066212 21.76633846 15.76649262 27.73193359 19.82617188 C29.18867319 20.83671427 30.59973083 21.91255692 32 23 C32 23.66 32 24.32 32 25 C27.88392185 24.46469282 25.70919513 23.29723677 22.5625 20.625 C19.52975746 18.09010225 16.49099997 15.58991824 13.34375 13.19921875 C12.71782959 12.72081543 12.09190918 12.24241211 11.44702148 11.74951172 C10.21389995 10.80921462 8.97657111 9.87440331 7.73461914 8.94580078 C4.2959292 6.29826662 1.95450739 3.88799857 0 0 Z " fill="#82BA2E" transform="translate(423,816)"/>
<path d="M0 0 C1.11846313 0.07335571 1.11846313 0.07335571 2.25952148 0.14819336 C7.76986311 0.52152274 13.26053988 1.01505999 18.75 1.625 C19.245 3.11 19.245 3.11 19.75 4.625 C8.20124086 5.20350927 -2.87826109 3.44422018 -14.25 1.625 C-14.25 1.295 -14.25 0.965 -14.25 0.625 C-9.41262192 -0.39419601 -4.8972971 -0.35430518 0 0 Z " fill="#85BD30" transform="translate(675.25,769.375)"/>
<path d="M0 0 C1.25619141 0.00451172 2.51238281 0.00902344 3.80664062 0.01367188 C6.89197663 0.02540319 9.97721316 0.041819 13.0625 0.0625 C12.4025 1.0525 11.7425 2.0425 11.0625 3.0625 C8.54394531 3.41894531 8.54394531 3.41894531 5.390625 3.390625 C3.68132813 3.38289062 3.68132813 3.38289062 1.9375 3.375 C0.74125 3.354375 -0.455 3.33375 -1.6875 3.3125 C-2.86828125 3.30734375 -4.0490625 3.3021875 -5.265625 3.296875 C-10.61570594 3.24867607 -15.66659832 3.04574484 -20.9375 2.0625 C-20.9375 1.7325 -20.9375 1.4025 -20.9375 1.0625 C-13.98535719 -0.24941997 -7.05305097 -0.04808058 0 0 Z " fill="#7EBC32" transform="translate(554.9375,770.9375)"/>
<path d="M0 0 C6.59623999 1.29399923 10.29007144 5.69754094 14.8125 10.3125 C15.58787109 11.07240234 16.36324219 11.83230469 17.16210938 12.61523438 C17.89880859 13.35708984 18.63550781 14.09894531 19.39453125 14.86328125 C20.06331299 15.53657471 20.73209473 16.20986816 21.42114258 16.90356445 C23.21615547 19.28701515 23.64052404 21.06635663 24 24 C18.39474638 19.33267726 13.20538407 14.35682563 8.0625 9.1875 C7.28326172 8.41212891 6.50402344 7.63675781 5.70117188 6.83789062 C4.96576172 6.10119141 4.23035156 5.36449219 3.47265625 4.60546875 C2.80500244 3.93668701 2.13734863 3.26790527 1.44946289 2.57885742 C0 1 0 1 0 0 Z " fill="#7BBA31" transform="translate(488,358)"/>
<path d="M0 0 C0.66 0.66 1.32 1.32 2 2 C2.99 2 3.98 2 5 2 C5.33 4.97 5.66 7.94 6 11 C5.67 10.34 5.34 9.68 5 9 C4.01 9 3.02 9 2 9 C2.33 9.66 2.66 10.32 3 11 C3.07065617 13.04055005 3.08421976 15.08334257 3.0625 17.125 C3.05347656 18.22070312 3.04445313 19.31640625 3.03515625 20.4453125 C3.02355469 21.28835938 3.01195312 22.13140625 3 23 C2.01 23.33 1.02 23.66 0 24 C0 16.08 0 8.16 0 0 Z " fill="#7DBA31" transform="translate(347,412)"/>
<path d="M0 0 C7.14264667 2.08720512 13.9010049 4.75358249 20.72265625 7.71484375 C22.38695401 8.38740243 24.05286741 9.05603615 25.72265625 9.71484375 C22.44558251 10.80114595 20.48203367 10.61373231 17.203125 9.60546875 C16.34525391 9.34507812 15.48738281 9.0846875 14.60351562 8.81640625 C13.71470703 8.53539062 12.82589844 8.254375 11.91015625 7.96484375 C11.03294922 7.69929687 10.15574219 7.43375 9.25195312 7.16015625 C4.25750113 5.62110298 -0.51687797 3.87101652 -5.27734375 1.71484375 C-2.27734375 -0.28515625 -2.27734375 -0.28515625 0 0 Z " fill="#82BA3A" transform="translate(486.27734375,758.28515625)"/>
<path d="M0 0 C0.66 0 1.32 0 2 0 C2.69346583 7.23185793 3.10519201 14.42457071 3.125 21.6875 C3.12951172 22.38230469 3.13402344 23.07710938 3.13867188 23.79296875 C3.12391233 28.75217534 3.12391233 28.75217534 2 31 C1.34 31 0.68 31 0 31 C0 20.77 0 10.54 0 0 Z " fill="#7EB92B" transform="translate(294,401)"/>
<path d="M0 0 C0.66 0.33 1.32 0.66 2 1 C1.67 1.66 1.34 2.32 1 3 C0.01 2.67 -0.98 2.34 -2 2 C-1.34 1.34 -0.68 0.68 0 0 Z M-4 3 C-3.34 3.33 -2.68 3.66 -2 4 C-4.53618 6.71733572 -6.7088785 8.35443925 -10 10 C-10.56589844 10.60199219 -11.13179687 11.20398438 -11.71484375 11.82421875 C-14.4425014 14.42132185 -17.25186373 16.02347585 -20.5625 17.8125 C-21.69816406 18.43769531 -22.83382812 19.06289063 -24.00390625 19.70703125 C-27 21 -27 21 -30 20 C-28.02 19.34 -26.04 18.68 -24 18 C-24 17.01 -24 16.02 -24 15 C-22.9275 14.505 -21.855 14.01 -20.75 13.5 C-14.8210513 10.5568528 -9.44645263 6.73989747 -4 3 Z " fill="#81BD37" transform="translate(811,738)"/>
<path d="M0 0 C0.66 0.33 1.32 0.66 2 1 C0.6528303 5.31094305 -1.67948778 8.36246489 -4.41796875 11.8671875 C-6.4371583 14.58935416 -8.09043712 17.46884173 -9.7265625 20.43359375 C-11.32818404 22.4036865 -12.53552049 22.63084801 -15 23 C-13.35736639 18.02321126 -10.47721169 14.06291203 -7.5 9.8125 C-7.00113281 9.08869141 -6.50226562 8.36488281 -5.98828125 7.61914062 C-2.29034479 2.29034479 -2.29034479 2.29034479 0 0 Z " fill="#7FBB30" transform="translate(763,420)"/>
<path d="M0 0 C0.33 1.32 0.66 2.64 1 4 C-2.40414478 5.73417014 -5.82489775 7.43264935 -9.25 9.125 C-10.21808594 9.61871094 -11.18617188 10.11242187 -12.18359375 10.62109375 C-13.11816406 11.07871094 -14.05273438 11.53632813 -15.015625 12.0078125 C-15.87446289 12.43723145 -16.73330078 12.86665039 -17.61816406 13.30908203 C-20 14 -20 14 -22.31152344 13.12451172 C-22.8687207 12.75342285 -23.42591797 12.38233398 -24 12 C-16 8 -8 4 0 0 Z " fill="#87C235" transform="translate(842,396)"/>
<path d="M0 0 C0.99 0.33 1.98 0.66 3 1 C3.19335938 1.99 3.38671875 2.98 3.5859375 4 C3.84863268 5.33339753 4.11167612 6.66672648 4.375 8 C4.5100293 8.68755371 4.64505859 9.37510742 4.78417969 10.08349609 C5.49162375 13.63668009 6.26725498 17.13827452 7.25 20.625 C7.98195685 23.91880581 7.99627907 25.81190699 7 29 C6.34 28.67 5.68 28.34 5 28 C4.20332582 25.55586375 3.53643862 23.180994 2.9375 20.6875 C2.7612207 19.97142578 2.58494141 19.25535156 2.40332031 18.51757812 C0.95788 12.38060472 0.23877055 6.30354247 0 0 Z " fill="#84BD31" transform="translate(379,625)"/>
<path d="M0 0 C0.99 0.33 1.98 0.66 3 1 C3.05834395 4.87493616 3.09371201 8.74975836 3.125 12.625 C3.15013672 14.26662109 3.15013672 14.26662109 3.17578125 15.94140625 C3.23662606 25.98079979 3.23662606 25.98079979 1 31 C0.67 31 0.34 31 0 31 C0 20.77 0 10.54 0 0 Z " fill="#87C435" transform="translate(376,583)"/>
<path d="M0 0 C0.99 0.33 1.98 0.66 3 1 C-1.54677094 6.17391176 -7.14776607 9.45166276 -13 13 C-13.8559375 13.58523438 -14.711875 14.17046875 -15.59375 14.7734375 C-18.40813879 16.20804477 -19.10498654 15.90259 -22 15 C-18.40735636 12.46242021 -14.79916761 9.94791239 -11.1875 7.4375 C-10.16333984 6.71369141 -9.13917969 5.98988281 -8.08398438 5.24414062 C-7.10107422 4.56416016 -6.11816406 3.88417969 -5.10546875 3.18359375 C-4.19949951 2.54993896 -3.29353027 1.91628418 -2.36010742 1.26342773 C-1.58127197 0.84649658 -0.80243652 0.42956543 0 0 Z " fill="#84BD2F" transform="translate(761,869)"/>
<path d="M0 0 C4.01196819 -0.28754271 6.05115561 0.29076585 9.35546875 2.5546875 C10.14244141 3.08707031 10.92941406 3.61945312 11.74023438 4.16796875 C12.54783203 4.73128906 13.35542969 5.29460938 14.1875 5.875 C15.00669922 6.43058594 15.82589844 6.98617187 16.66992188 7.55859375 C22.63027597 11.63027597 22.63027597 11.63027597 25 14 C23.21630859 14.62182617 23.21630859 14.62182617 21 15 C18.38822132 13.5290321 16.05170921 12.04415765 13.625 10.3125 C12.97789062 9.86455078 12.33078125 9.41660156 11.6640625 8.95507812 C10.38445888 8.06890102 9.10864372 7.17722539 7.83691406 6.27978516 C6.08700515 5.06061682 4.31216526 3.8916188 2.5234375 2.73046875 C1.69070313 2.15941406 0.85796875 1.58835937 0 1 C0 0.67 0 0.34 0 0 Z " fill="#81B62A" transform="translate(513,883)"/>
<path d="M0 0 C2.4294516 3.6441774 2.16179575 5.71241272 2 10 C2.66 10 3.32 10 4 10 C4.18451025 23.6332574 4.18451025 23.6332574 3 30 C2.67 30 2.34 30 2 30 C0.22796804 19.87410311 -0.23950618 10.2455423 0 0 Z " fill="#7CBB33" transform="translate(347,440)"/>
<path d="M0 0 C0.66 0.33 1.32 0.66 2 1 C2 1.66 2 2.32 2 3 C-0.92821855 4.70400669 -3.868888 6.38524739 -6.8125 8.0625 C-7.64587891 8.54783203 -8.47925781 9.03316406 -9.33789062 9.53320312 C-10.14033203 9.98759766 -10.94277344 10.44199219 -11.76953125 10.91015625 C-12.50792236 11.33433838 -13.24631348 11.75852051 -14.00708008 12.19555664 C-16 13 -16 13 -19 12 C-15.1521704 8.75316474 -11.16526157 6.17544209 -6.8125 3.6875 C-6.18408203 3.31560547 -5.55566406 2.94371094 -4.90820312 2.56054688 C-3.30802143 1.64151204 -1.65675589 0.81262931 0 0 Z " fill="#84BD37" transform="translate(647,940)"/>
<path d="M0 0 C0.66 0.33 1.32 0.66 2 1 C-2.5284184 7.24609434 -9.22822027 13.77428186 -16.84375 15.73046875 C-17.5553125 15.81941406 -18.266875 15.90835938 -19 16 C-13.31297584 9.9338409 -6.65796693 4.95119019 0 0 Z " fill="#84BC32" transform="translate(759,642)"/>
<path d="M0 0 C0.33 0 0.66 0 1 0 C1.02941647 4.27081848 1.04693715 8.54161034 1.0625 12.8125 C1.07087891 14.00810547 1.07925781 15.20371094 1.08789062 16.43554688 C1.10555893 22.91981595 0.91693551 29.2834476 0.22265625 35.73242188 C-0.04865746 38.49553787 -0.07497648 41.2258701 0 44 C-1.32 43.67 -2.64 43.34 -4 43 C-3.79503906 41.906875 -3.59007812 40.81375 -3.37890625 39.6875 C-1.03430762 26.47578084 -0.31142807 13.40173051 0 0 Z " fill="#74BC2E" transform="translate(943,642)"/>
<path d="M0 0 C3.30074439 3.14915819 5.66477151 6.7213054 8.1875 10.5 C8.65091797 11.17675781 9.11433594 11.85351562 9.59179688 12.55078125 C10.02943359 13.20433594 10.46707031 13.85789062 10.91796875 14.53125 C11.31781982 15.12486328 11.7176709 15.71847656 12.12963867 16.33007812 C13 18 13 18 13 21 C8.34049995 19.44683332 6.81896809 15.64599353 4.25 11.625 C3.73050781 10.84382812 3.21101563 10.06265625 2.67578125 9.2578125 C2.18980469 8.505 1.70382812 7.7521875 1.203125 6.9765625 C0.75614258 6.28643066 0.30916016 5.59629883 -0.15136719 4.88525391 C-1 3 -1 3 0 0 Z " fill="#80B32C" transform="translate(388,512)"/>
<path d="M0 0 C1.33333333 0.66666667 2.66666667 1.33333333 4 2 C5.3303125 2.5878125 5.3303125 2.5878125 6.6875 3.1875 C18.12456126 9.44551465 18.12456126 9.44551465 19.76171875 14.22265625 C19.84035156 14.80917969 19.91898437 15.39570312 20 16 C15.03231242 14.44759763 10.82132943 11.48945219 7 8 C7 7.34 7 6.68 7 6 C6.401875 5.7525 5.80375 5.505 5.1875 5.25 C2.71352479 3.83629988 1.56629745 2.34944617 0 0 Z " fill="#81BA34" transform="translate(430,726)"/>
<path d="M0 0 C0.66 0.33 1.32 0.66 2 1 C0.40454367 5.786369 -3.65499589 7.07517667 -7.8984375 9.48046875 C-11.47637159 11.23338608 -14.05613516 11.91036671 -18 12 C-14.87189356 8.68767688 -11.32001438 6.578774 -7.4375 4.25 C-6.75236328 3.82589844 -6.06722656 3.40179687 -5.36132812 2.96484375 C-3.61215357 1.91087596 -1.80905993 0.947503 0 0 Z " fill="#81BA30" transform="translate(676,923)"/>
<path d="M0 0 C4.38914698 2.82065301 8.4008749 5.87444683 12.375 9.25 C12.92027344 9.70890625 13.46554687 10.1678125 14.02734375 10.640625 C15.35386136 11.75769246 16.67726419 12.87845702 18 14 C17.01 14.495 17.01 14.495 16 15 C11.91813328 12.90545193 8.32713573 10.0853452 4.6875 7.3125 C3.86282227 6.68891602 3.86282227 6.68891602 3.02148438 6.05273438 C1.67932075 5.03735842 0.33942378 4.01898747 -1 3 C-0.67 2.01 -0.34 1.02 0 0 Z " fill="#80B830" transform="translate(475,599)"/>
<path d="M0 0 C1.109375 1.76171875 1.109375 1.76171875 2 4 C1.390625 5.89453125 1.390625 5.89453125 0.25 7.8125 C-1.80100259 11.50569048 -2.97701702 14.90806806 -4 19 C-4.99 18.01 -5.98 17.02 -7 16 C-5.35433477 10.31497465 -2.70967216 5.23318364 0 0 Z " fill="#79B92F" transform="translate(937,570)"/>
<path d="M0 0 C2.72539743 2.72539743 4.02711298 5.98515468 5.625 9.4375 C5.94984375 10.11876953 6.2746875 10.80003906 6.609375 11.50195312 C8.00668302 14.49912011 9 16.65380142 9 20 C5.39607741 18.79869247 4.87756571 17.45281228 3.19921875 14.1796875 C2.88597656 13.54289063 2.57273437 12.90609375 2.25 12.25 C1.92128906 11.62867188 1.59257812 11.00734375 1.25390625 10.3671875 C-0.24223077 7.37491347 -1.04133469 5.41117144 -0.703125 2.046875 C-0.47109375 1.37140625 -0.2390625 0.6959375 0 0 Z " fill="#7EB632" transform="translate(326,538)"/>
<path d="M0 0 C1 2 1 2 0 5.4375 C-1.33745476 8.92238262 -1.33745476 8.92238262 0 12 C-2.97 14.475 -2.97 14.475 -6 17 C-6 16.34 -6 15.68 -6 15 C-6.66 14.34 -7.32 13.68 -8 13 C-5.36 8.71 -2.72 4.42 0 0 Z " fill="#80B833" transform="translate(746,445)"/>
<path d="M0 0 C0.33 0 0.66 0 1 0 C1.09733092 7.09434233 1.10087193 13.98194143 0 21 C-0.66 21 -1.32 21 -2 21 C-2 23.64 -2 26.28 -2 29 C-2.33 29 -2.66 29 -3 29 C-2.67 21.08 -2.34 13.16 -2 5 C-1.34 5 -0.68 5 0 5 C0 3.35 0 1.7 0 0 Z " fill="#8CC522" transform="translate(296,380)"/>
<path d="M0 0 C4.67199091 1.53093488 8.02170005 4.10757395 11.8125 7.125 C12.40998047 7.59292969 13.00746094 8.06085937 13.62304688 8.54296875 C15.08616792 9.69005565 16.54366297 10.84431234 18 12 C17.67 12.66 17.34 13.32 17 14 C13.51359216 12.39724379 10.49423651 10.35302608 7.375 8.125 C6.41335938 7.44695313 5.45171875 6.76890625 4.4609375 6.0703125 C2.11902211 4.10012971 1.07414816 2.8180593 0 0 Z " fill="#7FB72F" transform="translate(448,580)"/>
<path d="M0 0 C0.99 0 1.98 0 3 0 C5.23940314 4.79872101 6.0560864 9.82855847 7 15 C6.34 15 5.68 15 5 15 C4.67 15.99 4.34 16.98 4 18 C3.32678716 15.75194998 2.66165877 13.50147776 2 11.25 C1.62875 9.99703125 1.2575 8.7440625 0.875 7.453125 C0 4 0 4 0 0 Z " fill="#81BB32" transform="translate(933,592)"/>
<path d="M0 0 C4.74130209 1.35262372 8.32288579 3.33354354 12.375 6.125 C13.43460938 6.84945312 14.49421875 7.57390625 15.5859375 8.3203125 C16.38257813 8.87460937 17.17921875 9.42890625 18 10 C15.69932794 10.80168206 14.47988352 11.18677067 12.16894531 10.28735352 C11.25773926 9.71392212 11.25773926 9.71392212 10.328125 9.12890625 C9.66425781 8.71962891 9.00039063 8.31035156 8.31640625 7.88867188 C7.63449219 7.45103516 6.95257812 7.01339844 6.25 6.5625 C5.55261719 6.12873047 4.85523438 5.69496094 4.13671875 5.24804688 C2.41750114 4.17647973 0.707797 3.08967644 -1 2 C-0.67 1.34 -0.34 0.68 0 0 Z " fill="#7FB629" transform="translate(543,901)"/>
<path d="M0 0 C2.66343273 3.33751138 4.70475504 6.88101852 6.75 10.625 C7.38421875 11.77226563 8.0184375 12.91953125 8.671875 14.1015625 C9.11015625 15.05804687 9.5484375 16.01453125 10 17 C9.67 17.66 9.34 18.32 9 19 C5.46809543 16.64539695 4.70040835 14.84632384 2.875 11.0625 C2.09769531 9.47115234 2.09769531 9.47115234 1.3046875 7.84765625 C0 5 0 5 -1 2 C-0.67 1.34 -0.34 0.68 0 0 Z " fill="#7BB92D" transform="translate(568,705)"/>
<path d="M0 0 C0.66 1.32 1.32 2.64 2 4 C1.59007812 4.60328125 1.18015625 5.2065625 0.7578125 5.828125 C-0.05042969 7.02695312 -0.05042969 7.02695312 -0.875 8.25 C-1.40867187 9.03890625 -1.94234375 9.8278125 -2.4921875 10.640625 C-3.81822015 12.71555692 -4.94928175 14.77614972 -6 17 C-6.99 17 -7.98 17 -9 17 C-7.68925635 12.53817564 -5.92933989 9.00381243 -3.375 5.125 C-2.74335937 4.15820312 -2.11171875 3.19140625 -1.4609375 2.1953125 C-0.73777344 1.10863281 -0.73777344 1.10863281 0 0 Z " fill="#79B833" transform="translate(682,723)"/>
<path d="M0 0 C3 1 3 1 3.87890625 2.63671875 C4.10449219 3.31347656 4.33007812 3.99023438 4.5625 4.6875 C4.80613281 5.40808594 5.04976563 6.12867188 5.30078125 6.87109375 C5.64689453 7.92490234 5.64689453 7.92490234 6 9 C6.61875 10.60875 6.61875 10.60875 7.25 12.25 C8.03806745 15.13958063 7.83097703 16.2221625 7 19 C5.82379175 16.58757287 4.6589044 14.17072309 3.5 11.75 C2.99919922 10.72712891 2.99919922 10.72712891 2.48828125 9.68359375 C0.80625256 6.1479008 0 3.98070714 0 0 Z " fill="#93C432" transform="translate(318,702)"/>
<path d="M0 0 C5.41110437 1.31178288 9.12401371 5.40007956 12 10 C12.19921875 12.76171875 12.19921875 12.76171875 12 15 C7.47619711 10.75036698 3.61682339 6.04479113 0 1 C0 0.67 0 0.34 0 0 Z " fill="#7CB62E" transform="translate(520,392)"/>
<path d="M0 0 C0.66 0.99 1.32 1.98 2 3 C-0.10063576 3.69821417 -2.20565737 4.38324472 -4.3125 5.0625 C-5.48425781 5.44535156 -6.65601563 5.82820313 -7.86328125 6.22265625 C-11 7 -11 7 -14 6 C-11.48933531 2.94093074 -9.09940067 2.24808722 -5.3125 1.3125 C-4.31863281 1.06113281 -3.32476563 0.80976563 -2.30078125 0.55078125 C-1.54152344 0.36902344 -0.78226563 0.18726563 0 0 Z " fill="#84C531" transform="translate(907,373)"/>
<path d="M0 0 C0.99 0 1.98 0 3 0 C3 0.66 3 1.32 3 2 C3.66 2 4.32 2 5 2 C5.13277344 2.86882812 5.26554687 3.73765625 5.40234375 4.6328125 C5.57894531 5.78523438 5.75554687 6.93765625 5.9375 8.125 C6.11152344 9.26195312 6.28554688 10.39890625 6.46484375 11.5703125 C6.95589266 14.71732669 7.47018719 17.85930783 8 21 C5.44317914 17.96332761 4.30696173 15.33051924 3.3125 11.5 C3.06113281 10.5615625 2.80976563 9.623125 2.55078125 8.65625 C2 6 2 6 2 2 C1.34 2 0.68 2 0 2 C0 1.34 0 0.68 0 0 Z " fill="#91C136" transform="translate(349,421)"/>
<path d="M0 0 C6.23696669 1.32701419 10.9701567 4.08789965 16 8 C16 8.33 16 8.66 16 9 C11.3972481 9.45438501 9.00209903 8.12721356 5.1875 5.625 C4.21167969 4.99851562 3.23585938 4.37203125 2.23046875 3.7265625 C1.49441406 3.15679688 0.75835938 2.58703125 0 2 C0 1.34 0 0.68 0 0 Z " fill="#7EB630" transform="translate(573,920)"/>
<path d="M0 0 C2.56538479 2.56538479 3.37357879 5.06045896 4.6875 8.4375 C5.14511719 9.59121094 5.60273437 10.74492188 6.07421875 11.93359375 C7 15 7 15 6 18 C3.33475152 15.65641944 2.08355988 13.39918807 0.75 10.125 C0.21632813 8.86042969 0.21632813 8.86042969 -0.328125 7.5703125 C-1.08934011 4.65822213 -0.80242031 2.87019574 0 0 Z " fill="#7EB42D" transform="translate(589,749)"/>
<path d="M0 0 C4.25209792 4.12324647 8.13635705 8.51282966 12 13 C11.01 13.495 11.01 13.495 10 14 C1.88888889 7.33333333 1.88888889 7.33333333 0 4 C0 2.68 0 1.36 0 0 Z " fill="#7CB82D" transform="translate(404,536)"/>
<path d="M0 0 C0.66 0.33 1.32 0.66 2 1 C2.24794402 7.5705166 1.32388229 13.56971459 0 20 C-0.66 20 -1.32 20 -2 20 C-1.41339754 13.32271667 -0.76418989 6.65936905 0 0 Z " fill="#8CC239" transform="translate(944,660)"/>
<path d="M0 0 C2.94956528 1.36944102 5.52468811 2.87830409 8 5 C8 5.66 8 6.32 8 7 C8.5775 7.2475 9.155 7.495 9.75 7.75 C12.3002997 9.16683317 14.01785701 10.87627537 16 13 C10.13416597 12.22333905 7.01829625 9.13136519 3 5 C1 2.0625 1 2.0625 0 0 Z " fill="#7DB72E" transform="translate(405,801)"/>
<path d="M0 0 C-1.40071493 5.29158974 -4.85487245 7.77478044 -9 11 C-9.66 10.34 -10.32 9.68 -11 9 C-9.73965413 7.49117739 -8.46636351 5.99315956 -7.1875 4.5 C-6.47980469 3.6646875 -5.77210938 2.829375 -5.04296875 1.96875 C-3 0 -3 0 0 0 Z " fill="#88BC30" transform="translate(837,716)"/>
<path d="M0 0 C0.99 0.66 1.98 1.32 3 2 C2.77192509 3.79458945 2.51677697 5.58575449 2.25 7.375 C2.11078125 8.37273437 1.9715625 9.37046875 1.828125 10.3984375 C1 13 1 13 -1.078125 14.3515625 C-1.71234375 14.56554687 -2.3465625 14.77953125 -3 15 C-2.68917128 13.24970238 -2.37626821 11.49977306 -2.0625 9.75 C-1.88847656 8.77546875 -1.71445312 7.8009375 -1.53515625 6.796875 C-1.09620271 4.50278205 -0.59651408 2.25708029 0 0 Z " fill="#7BB93C" transform="translate(968,480)"/>
<path d="M0 0 C4.11050664 1.45076705 7.53714127 3.34245725 11 6 C11 6.99 11 7.98 11 9 C6.22390502 7.35821735 2.20617096 4.73453298 -2 2 C-1.34 1.34 -0.68 0.68 0 0 Z " fill="#7DB42B" transform="translate(442,322)"/>
<path d="M0 0 C4.99154626 0.28797382 8.65951869 1.56509585 13 4 C12.01 4.99 11.02 5.98 10 7 C10 6.34 10 5.68 10 5 C8.948125 4.87625 7.89625 4.7525 6.8125 4.625 C3.54041229 4.08859218 0.99463924 3.36119965 -2 2 C-1.34 1.34 -0.68 0.68 0 0 Z " fill="#8CC72F" transform="translate(400,302)"/>
<path d="M0 0 C5 1.66666667 10 3.33333333 15 5 C15 5.66 15 6.32 15 7 C9.06 6.01 9.06 6.01 3 5 C3 4.34 3 3.68 3 3 C2.01 2.67 1.02 2.34 0 2 C0 1.34 0 0.68 0 0 Z " fill="#8CC435" transform="translate(381,294)"/>
<path d="M0 0 C0.66 1.32 1.32 2.64 2 4 C2.66 4 3.32 4 4 4 C3.67 5.32 3.34 6.64 3 8 C-1.455 8.495 -1.455 8.495 -6 9 C-5.67 7.68 -5.34 6.36 -5 5 C-3.35 5 -1.7 5 0 5 C0 3.35 0 1.7 0 0 Z " fill="#8EC235" transform="translate(593,763)"/>
<path d="M0 0 C0.33 0.66 0.66 1.32 1 2 C-1.42195448 4.87255066 -3.59742703 5.70838919 -7.1875 6.6875 C-8.08855469 6.93886719 -8.98960937 7.19023437 -9.91796875 7.44921875 C-10.60503906 7.63097656 -11.29210937 7.81273437 -12 8 C-12 7.01 -12 6.02 -12 5 C-8.04 3.35 -4.08 1.7 0 0 Z " fill="#88C135" transform="translate(859,389)"/>
<path d="M0 0 C0.66 0 1.32 0 2 0 C2.21192221 5.19209404 1.5912689 9.126739 0 14 C-0.99 14 -1.98 14 -3 14 C-2.69147815 12.041036 -2.3780582 10.08284287 -2.0625 8.125 C-1.88847656 7.03445313 -1.71445312 5.94390625 -1.53515625 4.8203125 C-1 2 -1 2 0 0 Z " fill="#82C23F" transform="translate(305,319)"/>
<path d="M0 0 C4.62 0 9.24 0 14 0 C14 0.66 14 1.32 14 2 C10.84493858 2.93619813 8.03413498 3.1057123 4.75 3.0625 C3.85796875 3.05347656 2.9659375 3.04445313 2.046875 3.03515625 C1.37140625 3.02355469 0.6959375 3.01195312 0 3 C0 2.01 0 1.02 0 0 Z " fill="#97D33B" transform="translate(702,771)"/>
<path d="M0 0 C0.66 0.33 1.32 0.66 2 1 C1.42069896 5.77923358 -0.39853671 9.02129144 -3 13 C-3.99 13.33 -4.98 13.66 -6 14 C-4.50829734 9.0276578 -2.39542583 4.58154261 0 0 Z " fill="#7CB42F" transform="translate(665,753)"/>
<path d="M0 0 C0 0.99 0 1.98 0 3 C-4.50353262 4.75747614 -8.17639811 5.19294408 -13 5 C-13 4.01 -13 3.02 -13 2 C-8.71 1.34 -4.42 0.68 0 0 Z " fill="#8EC236" transform="translate(640,379)"/>
<path d="M0 0 C1.65376718 0.73233973 3.29787304 1.48652714 4.9375 2.25 C5.85402344 2.66765625 6.77054688 3.0853125 7.71484375 3.515625 C10 5 10 5 10.81640625 7.171875 C10.87699219 7.77515625 10.93757812 8.3784375 11 9 C6.69235185 7.43358249 2.93828536 5.31663844 -1 3 C-0.67 2.01 -0.34 1.02 0 0 Z " fill="#88BC2E" transform="translate(590,929)"/>
<path d="M0 0 C0.33 0.99 0.66 1.98 1 3 C-0.62339805 4.70884005 -2.29319053 6.37446717 -4 8 C-4.66 8 -5.32 8 -6 8 C-6.66 9.32 -7.32 10.64 -8 12 C-8.99 11.67 -9.98 11.34 -11 11 C-7.6189962 6.86378916 -4.33409466 3.18683431 0 0 Z " fill="#85B434" transform="translate(895,761)"/>
<path d="M0 0 C4.13621084 3.3810038 7.81316569 6.66590534 11 11 C7.49948475 11 6.9873084 10.47488681 4.4375 8.25 C3.83808594 7.73953125 3.23867188 7.2290625 2.62109375 6.703125 C0.91795053 4.91379863 -0.01568423 3.25266295 -1 1 C-0.67 0.67 -0.34 0.34 0 0 Z " fill="#79B42A" transform="translate(364,763)"/>
<path d="M0 0 C0 4.64810271 -1.99815649 7.84161844 -5 11.3125 C-7 13 -7 13 -10 14 C-8.43632643 10.47761953 -6.30504111 7.72876006 -3.875 4.75 C-3.15054688 3.85796875 -2.42609375 2.9659375 -1.6796875 2.046875 C-0.84824219 1.03367187 -0.84824219 1.03367187 0 0 Z " fill="#78B42E" transform="translate(705,692)"/>
<path d="M0 0 C2.44989101 3.74235319 2.23086143 7.44225419 2.125 11.75 C2.11597656 12.44738281 2.10695313 13.14476562 2.09765625 13.86328125 C2.07419888 15.57566958 2.03833104 17.28788004 2 19 C1.67 19 1.34 19 1 19 C1 15.7 1 12.4 1 9 C0.34 9 -0.32 9 -1 9 C-1.33 6.36 -1.66 3.72 -2 1 C-1.34 0.67 -0.68 0.34 0 0 Z " fill="#7EBB2B" transform="translate(870,602)"/>
<path d="M0 0 C0.66 0.33 1.32 0.66 2 1 C2.59355614 3.64860427 2.74209269 6.29197322 3 9 C2.34 9 1.68 9 1 9 C1.33 9.99 1.66 10.98 2 12 C2.03954234 14.33299825 2.04401732 16.66708189 2 19 C-1.8331077 13.25033845 -1.25900441 6.57480081 0 0 Z " fill="#89C333" transform="translate(350,463)"/>
<path d="M0 0 C0.99 0.495 0.99 0.495 2 1 C3.28317892 4.84953676 3.06643637 7.94738135 3 12 C3.66 12 4.32 12 5 12 C4.67 13.65 4.34 15.3 4 17 C3.34 16.67 2.68 16.34 2 16 C1.3671875 13.671875 1.3671875 13.671875 0.875 10.75 C0.70742188 9.79609375 0.53984375 8.8421875 0.3671875 7.859375 C0.02555561 5.19900755 -0.06841462 2.67794365 0 0 Z " fill="#95C33D" transform="translate(295,436)"/>
<path d="M0 0 C1.0209375 0.2165625 1.0209375 0.2165625 2.0625 0.4375 C-1.10702847 3.69758643 -4.33687989 6.65987877 -7.9375 9.4375 C-8.5975 8.7775 -9.2575 8.1175 -9.9375 7.4375 C-3.86310175 0.57535558 -3.86310175 0.57535558 0 0 Z " fill="#8DC234" transform="translate(876.9375,779.5625)"/>
<path d="M0 0 C0.66 0.33 1.32 0.66 2 1 C1.67 1.66 1.34 2.32 1 3 C0.01 2.67 -0.98 2.34 -2 2 C-1.34 1.34 -0.68 0.68 0 0 Z M-4 3 C-3.34 3.33 -2.68 3.66 -2 4 C-5.71274665 8.5565527 -10.79007402 10.57400393 -16 13 C-14.69522778 9.08568335 -13.01326694 8.42187412 -9.5625 6.25 C-8.57378906 5.61578125 -7.58507812 4.9815625 -6.56640625 4.328125 C-5.29603516 3.67070313 -5.29603516 3.67070313 -4 3 Z " fill="#98CB35" transform="translate(811,738)"/>
<path d="M0 0 C1.32 0.33 2.64 0.66 4 1 C4.33 2.65 4.66 4.3 5 6 C5.5775 6.0825 6.155 6.165 6.75 6.25 C9.6159304 7.20531013 10.9990764 8.78469173 13 11 C12.67 11.66 12.34 12.32 12 13 C11.566875 12.525625 11.13375 12.05125 10.6875 11.5625 C8.97690387 9.76313043 8.97690387 9.76313043 6 9 C6 8.34 6 7.68 6 7 C5.34 7 4.68 7 4 7 C2.02 3.535 2.02 3.535 0 0 Z " fill="#89BE2B" transform="translate(332,730)"/>
<path d="M0 0 C2.56616632 3.84924948 2.55097676 6.4349304 3 11 C2.01 11.33 1.02 11.66 0 12 C-0.38897161 10.37828761 -0.76078298 8.75245075 -1.125 7.125 C-1.43824219 5.76761719 -1.43824219 5.76761719 -1.7578125 4.3828125 C-1.83773438 3.59648438 -1.91765625 2.81015625 -2 2 C-1.34 1.34 -0.68 0.68 0 0 Z " fill="#89C431" transform="translate(316,689)"/>
<path d="M0 0 C0.33 0.66 0.66 1.32 1 2 C1.99 2.33 2.98 2.66 4 3 C5.07637127 6.87493656 4.94566951 8.52452927 3 12 C2.30062798 10.5682384 1.61587282 9.12932968 0.9375 7.6875 C0.55464844 6.88699219 0.17179687 6.08648438 -0.22265625 5.26171875 C-1 3 -1 3 0 0 Z " fill="#82BA33" transform="translate(364,524)"/>
<path d="M0 0 C0.66 0.99 1.32 1.98 2 3 C0.3811004 4.03048037 -1.24532489 5.04914678 -2.875 6.0625 C-3.77992188 6.63097656 -4.68484375 7.19945312 -5.6171875 7.78515625 C-6.40351562 8.18605469 -7.18984375 8.58695312 -8 9 C-8.66 8.67 -9.32 8.34 -10 8 C-8.76736651 4.30209954 -7.79947549 4.0645154 -4.4375 2.3125 C-3.61121094 1.87550781 -2.78492188 1.43851562 -1.93359375 0.98828125 C-1.29550781 0.66214844 -0.65742187 0.33601563 0 0 Z " fill="#81C02B" transform="translate(799,418)"/>
<path d="M0 0 C-2.41407698 1.60938465 -4.34044437 2.65490738 -7 3.6875 C-7.680625 3.95949219 -8.36125 4.23148437 -9.0625 4.51171875 C-11 5 -11 5 -14 4 C-9.87944246 -0.77117189 -6.01206434 -1.3981545 0 0 Z " fill="#7EB82D" transform="translate(547,403)"/>
<path d="M0 0 C2.31 0 4.62 0 7 0 C7.625 2.3125 7.625 2.3125 8 5 C7.01 6.485 7.01 6.485 6 8 C5.67 6.35 5.34 4.7 5 3 C3.35 3 1.7 3 0 3 C0 2.01 0 1.02 0 0 Z " fill="#75BE28" transform="translate(964,362)"/>
<path d="M0 0 C0.33 0.99 0.66 1.98 1 3 C-1.52475462 4.26237731 -3.31200466 4.09856404 -6.125 4.0625 C-7.03507813 4.05347656 -7.94515625 4.04445313 -8.8828125 4.03515625 C-9.58148437 4.02355469 -10.28015625 4.01195312 -11 4 C-11 3.01 -11 2.02 -11 1 C-9.54182203 0.83197949 -8.0834516 0.66562857 -6.625 0.5 C-5.81289063 0.4071875 -5.00078125 0.314375 -4.1640625 0.21875 C-2 0 -2 0 0 0 Z " fill="#82C030" transform="translate(728,770)"/>
<path d="M0 0 C0.33 0.66 0.66 1.32 1 2 C0.22265625 4.1640625 0.22265625 4.1640625 -0.9375 6.625 C-1.31777344 7.44226563 -1.69804687 8.25953125 -2.08984375 9.1015625 C-2.39019531 9.72804688 -2.69054687 10.35453125 -3 11 C-3.99 11 -4.98 11 -6 11 C-5.29337199 7.32553433 -3.81159884 4.26087791 -2 1 C-1.34 0.67 -0.68 0.34 0 0 Z " fill="#83BB33" transform="translate(336,563)"/>
<path d="M0 0 C1.32 0.33 2.64 0.66 4 1 C3.60404157 2.48484412 3.18249294 3.9628831 2.75 5.4375 C2.51796875 6.26121094 2.2859375 7.08492187 2.046875 7.93359375 C1.70140625 8.61550781 1.3559375 9.29742188 1 10 C-0.32 10.33 -1.64 10.66 -3 11 C-2.01 7.37 -1.02 3.74 0 0 Z " fill="#81BD34" transform="translate(959,514)"/>
<path d="M0 0 C2.10900699 3.16351048 3.0584157 5.88040844 4.1875 9.5 C4.55230469 10.6446875 4.91710937 11.789375 5.29296875 12.96875 C6 16 6 16 5 19 C3.09898518 17.39379497 2.10426783 16.44100165 1.5234375 13.984375 C1.47445313 13.24703125 1.42546875 12.5096875 1.375 11.75 C1.31183594 10.96238281 1.24867188 10.17476563 1.18359375 9.36328125 C1.12300781 8.58339844 1.06242187 7.80351562 1 7 C0.69752967 4.66118013 0.3474236 2.33270132 0 0 Z " fill="#74B327" transform="translate(354,429)"/>
<path d="M0 0 C4.82034262 0.41317222 6.90992611 2.38019915 10 6 C10 6.66 10 7.32 10 8 C6.40094092 7.44449305 5.00090201 6.25112752 2.75 3.4375 C2.22921875 2.79683594 1.7084375 2.15617188 1.171875 1.49609375 C0.78515625 1.00238281 0.3984375 0.50867188 0 0 Z " fill="#80B737" transform="translate(426,563)"/>
<path d="M0 0 C0.66 0 1.32 0 2 0 C2.89604368 6.04829486 3.11269443 11.8894576 3 18 C2.67 18 2.34 18 2 18 C1.86722656 17.26394531 1.73445313 16.52789062 1.59765625 15.76953125 C1.42105469 14.79371094 1.24445313 13.81789063 1.0625 12.8125 C0.80146484 11.36810547 0.80146484 11.36810547 0.53515625 9.89453125 C0.18658706 8.00920446 -0.19973497 6.13034648 -0.62890625 4.26171875 C-1 2 -1 2 0 0 Z " fill="#80BC37" transform="translate(296,430)"/>
<path d="M0 0 C0 0.66 0 1.32 0 2 C-4.95 2.66 -9.9 3.32 -15 4 C-14.67 3.01 -14.34 2.02 -14 1 C-12.23103898 0.63659714 -10.45973374 0.28459117 -8.6875 -0.0625 C-7.70136719 -0.25972656 -6.71523438 -0.45695312 -5.69921875 -0.66015625 C-3 -1 -3 -1 0 0 Z " fill="#93C638" transform="translate(608,386)"/>
<path d="M0 0 C2.11386464 2.11386464 2.97008322 3.79267603 4.1875 6.5 C4.55230469 7.2940625 4.91710937 8.088125 5.29296875 8.90625 C5.52628906 9.5971875 5.75960938 10.288125 6 11 C5.67 11.66 5.34 12.32 5 13 C4.67 12.01 4.34 11.02 4 10 C3.01 9.67 2.02 9.34 1 9 C0.05078125 7.15234375 0.05078125 7.15234375 -0.6875 4.9375 C-0.93886719 4.20402344 -1.19023437 3.47054688 -1.44921875 2.71484375 C-1.63097656 2.14894531 -1.81273437 1.58304687 -2 1 C-1.34 0.67 -0.68 0.34 0 0 Z " fill="#83B735" transform="translate(368,471)"/>
<path d="M0 0 C-4.455 3.465 -4.455 3.465 -9 7 C-9.66 6.01 -10.32 5.02 -11 4 C-4.45384615 -1.48461538 -4.45384615 -1.48461538 0 0 Z " fill="#98CB2E" transform="translate(806,841)"/>
<path d="M0 0 C3.52834378 0.60041144 3.90567885 0.87685849 6.25 3.9375 C8 7 8 7 8 9 C6.140625 8.75390625 6.140625 8.75390625 4 8 C2.734375 6.15234375 2.734375 6.15234375 1.75 3.9375 C1.41484375 3.20402344 1.0796875 2.47054687 0.734375 1.71484375 C0.49203125 1.14894531 0.2496875 0.58304688 0 0 Z " fill="#79B82E" transform="translate(552,683)"/>
<path d="M0 0 C3.26008643 3.16952847 6.22237877 6.39937989 9 10 C8.67 10.66 8.34 11.32 8 12 C4.86192049 10.91790362 4.03092212 10.05268214 2.3125 7.125 C1.29915475 4.71227322 0.49159115 2.55627397 0 0 Z " fill="#78B92A" transform="translate(539,662)"/>
<path d="M0 0 C0.99 0 1.98 0 3 0 C4.13764351 4.26616316 5 7.56486311 5 12 C4.34 12 3.68 12 3 12 C2.49440092 10.56445975 1.9957251 9.1264798 1.5 7.6875 C1.2215625 6.88699219 0.943125 6.08648438 0.65625 5.26171875 C0 3 0 3 0 0 Z " fill="#7BBD34" transform="translate(387,658)"/>
<path d="M0 0 C0.66 0 1.32 0 2 0 C2 0.66 2 1.32 2 2 C2.66 2 3.32 2 4 2 C4 2.66 4 3.32 4 4 C4.99 4.33 5.98 4.66 7 5 C8.6875 6.5625 8.6875 6.5625 10 8 C9.67 8.66 9.34 9.32 9 10 C5.6265771 8.55424733 3.38404854 6.7950914 1 4 C0.25 1.75 0.25 1.75 0 0 Z " fill="#81BA36" transform="translate(507,627)"/>
<path d="M0 0 C4.455 1.98 4.455 1.98 9 4 C8.67 4.99 8.34 5.98 8 7 C2.25 5.125 2.25 5.125 0 4 C0 2.68 0 1.36 0 0 Z " fill="#8FC62B" transform="translate(415,307)"/>
<path d="M0 0 C1.32 0 2.64 0 4 0 C6.8125 2.8125 6.8125 2.8125 9 6 C8.67 6.99 8.34 7.98 8 9 C1.42857143 3.85714286 1.42857143 3.85714286 0 0 Z " fill="#91C329" transform="translate(355,756)"/>
<path d="M0 0 C0.33 0 0.66 0 1 0 C1 3.96 1 7.92 1 12 C-0.32 12.33 -1.64 12.66 -3 13 C-2.68991116 11.39536551 -2.37683713 9.79130769 -2.0625 8.1875 C-1.88847656 7.29417969 -1.71445312 6.40085937 -1.53515625 5.48046875 C-1 3 -1 3 0 0 Z " fill="#76BD32" transform="translate(963,500)"/>
<path d="M0 0 C6.70212766 1.93617021 6.70212766 1.93617021 9 5 C9 5.66 9 6.32 9 7 C5.56072421 5.7580393 2.74792181 4.44259716 0 2 C0 1.34 0 0.68 0 0 Z " fill="#85BA31" transform="translate(617,945)"/>
<path d="M0 0 C0.66 0.33 1.32 0.66 2 1 C0.73427767 2.15147661 -0.53777906 3.29599314 -1.8125 4.4375 C-2.52019531 5.07558594 -3.22789062 5.71367188 -3.95703125 6.37109375 C-6 8 -6 8 -9 9 C-7.75023244 5.34683329 -7.32901247 4.21934164 -4 2 C-3.34 2 -2.68 2 -2 2 C-1.34 1.34 -0.68 0.68 0 0 Z " fill="#82BF30" transform="translate(821,732)"/>
<path d="M0 0 C0.99 0.495 0.99 0.495 2 1 C2 1.99 2 2.98 2 4 C2.66 4 3.32 4 4 4 C4.66 6.31 5.32 8.62 6 11 C5.34 11 4.68 11 4 11 C4 10.34 4 9.68 4 9 C3.34 9 2.68 9 2 9 C0.50178941 5.62902617 0 3.79557881 0 0 Z " fill="#7CB530" transform="translate(356,502)"/>
<path d="M0 0 C1.2065625 0.0309375 1.2065625 0.0309375 2.4375 0.0625 C-0.30645564 3.00971162 -2.94587216 5.25418608 -6.5625 7.0625 C-7.2225 6.7325 -7.8825 6.4025 -8.5625 6.0625 C-2.5625 0.0625 -2.5625 0.0625 0 0 Z " fill="#85BF2F" transform="translate(778.5625,431.9375)"/>
<path d="M0 0 C0.99 0 1.98 0 3 0 C2.5205537 4.21912747 1.83374881 6.79663178 -1 10 C-1.66 9.67 -2.32 9.34 -3 9 C-2.01 6.03 -1.02 3.06 0 0 Z " fill="#79B933" transform="translate(312,296)"/>
<path d="M0 0 C1.68359375 2.05078125 1.68359375 2.05078125 3 4 C1.39431334 3.71682074 -0.20952047 3.42312209 -1.8125 3.125 C-2.70582031 2.96257812 -3.59914063 2.80015625 -4.51953125 2.6328125 C-7 2 -7 2 -10 0 C-6.40923823 -1.242956 -3.64684786 -1.0087026 0 0 Z " fill="#7FBD35" transform="translate(381,294)"/>
<path d="M0 0 C0.33 0.66 0.66 1.32 1 2 C3.02463255 2.65213292 3.02463255 2.65213292 5 3 C1.32589215 4.17571451 -2.16929183 4.07366746 -6 4 C-6 3.01 -6 2.02 -6 1 C-4.02 0.67 -2.04 0.34 0 0 Z " fill="#7EB82F" transform="translate(741,768)"/>
<path d="M0 0 C0.66 0.33 1.32 0.66 2 1 C0.75006004 4.74981988 -0.7230706 5.86618551 -4 8 C-5.32 7.67 -6.64 7.34 -8 7 C-5.36 4.69 -2.72 2.38 0 0 Z " fill="#7AB72F" transform="translate(748,650)"/>
<path d="M0 0 C0.33 0 0.66 0 1 0 C1.19294408 4.82360189 0.75747614 8.49646738 -1 13 C-1.33 13 -1.66 13 -2 13 C-2.05447047 11.58376784 -2.09300508 10.16691809 -2.125 8.75 C-2.14820313 7.96109375 -2.17140625 7.1721875 -2.1953125 6.359375 C-1.9828378 3.79268059 -1.28654105 2.2083933 0 0 Z " fill="#8FC83B" transform="translate(378,601)"/>
<path d="M0 0 C0.66 0.33 1.32 0.66 2 1 C-0.26557485 4.39836227 -1.30722534 4.64898488 -5 6 C-5.99 6.66 -6.98 7.32 -8 8 C-8.99 7.67 -9.98 7.34 -11 7 C-9.21475351 5.80286983 -7.4215972 4.61752721 -5.625 3.4375 C-4.62726562 2.77621094 -3.62953125 2.11492187 -2.6015625 1.43359375 C-1.74304688 0.96050781 -0.88453125 0.48742187 0 0 Z " fill="#99C932" transform="translate(766,439)"/>
<path d="M0 0 C0.33 0.99 0.66 1.98 1 3 C0.00390625 4.82421875 0.00390625 4.82421875 -1.4375 6.6875 C-1.91058594 7.31011719 -2.38367188 7.93273437 -2.87109375 8.57421875 C-3.24363281 9.04472656 -3.61617187 9.51523437 -4 10 C-4.66 8.68 -5.32 7.36 -6 6 C-4.02 4.02 -2.04 2.04 0 0 Z " fill="#79B732" transform="translate(778,402)"/>
<path d="M0 0 C0.33 0 0.66 0 1 0 C0.88617347 1.95901454 0.75858875 3.9172338 0.625 5.875 C0.55539062 6.96554687 0.48578125 8.05609375 0.4140625 9.1796875 C0 12 0 12 -2 14 C-2.66 13.34 -3.32 12.68 -4 12 C-3.625 9.875 -3.625 9.875 -3 8 C-2.34 8 -1.68 8 -1 8 C-0.67 5.36 -0.34 2.72 0 0 Z " fill="#7FB930" transform="translate(301,344)"/>
<path d="M0 0 C0.99 0.33 1.98 0.66 3 1 C1.68 4.3 0.36 7.6 -1 11 C-1.33 11 -1.66 11 -2 11 C-1.85892253 9.54119891 -1.71197585 8.08296449 -1.5625 6.625 C-1.48128906 5.81289063 -1.40007813 5.00078125 -1.31640625 4.1640625 C-1 2 -1 2 0 0 Z " fill="#7EB835" transform="translate(858,675)"/>
<path d="M0 0 C0.66 0.99 1.32 1.98 2 3 C-1.3 3.33 -4.6 3.66 -8 4 C-8 3.01 -8 2.02 -8 1 C-5.36 0.67 -2.72 0.34 0 0 Z " fill="#80BA34" transform="translate(950,364)"/>
<path d="M0 0 C0.99 0 1.98 0 3 0 C2.74438677 2.3431213 2.40729228 4.67843403 2 7 C1.01 7.495 1.01 7.495 0 8 C-0.66 7.67 -1.32 7.34 -2 7 C-1.34 4.69 -0.68 2.38 0 0 Z " fill="#8BC231" transform="translate(302,333)"/>
<path d="M0 0 C3.14624993 -0.26218749 4.61837017 -0.24754367 7.3125 1.5 C8.1478125 2.2425 8.1478125 2.2425 9 3 C8.67 3.99 8.34 4.98 8 6 C6.66402348 5.19185349 5.331275 4.37836819 4 3.5625 C3.2575 3.11003906 2.515 2.65757812 1.75 2.19140625 C1.1725 1.79824219 0.595 1.40507813 0 1 C0 0.67 0 0.34 0 0 Z " fill="#8EBE24" transform="translate(513,883)"/>
<path d="M0 0 C4.77379752 1.19344938 6.38574709 2.79645765 10 6 C8.68 6.33 7.36 6.66 6 7 C4.02 4.69 2.04 2.38 0 0 Z " fill="#81B632" transform="translate(394,793)"/>
<path d="M0 0 C0.66 0.99 1.32 1.98 2 3 C1.01 4.98 0.02 6.96 -1 9 C-1.99 9 -2.98 9 -4 9 C-2.94124926 5.59687262 -1.99097846 2.98646769 0 0 Z " fill="#7BB533" transform="translate(671,742)"/>
<path d="M0 0 C0 3.57575896 -1.08840607 5.05295935 -3 8 C-4.32 7.67 -5.64 7.34 -7 7 C-3.375 1.125 -3.375 1.125 0 0 Z " fill="#87C32E" transform="translate(845,704)"/>
<path d="M0 0 C1.32 0.33 2.64 0.66 4 1 C5.046875 3.06640625 5.046875 3.06640625 5.75 5.5625 C5.99234375 6.38878906 6.2346875 7.21507812 6.484375 8.06640625 C6.65453125 8.70449219 6.8246875 9.34257813 7 10 C6.34 10 5.68 10 5 10 C3.35 6.7 1.7 3.4 0 0 Z " fill="#8CC134" transform="translate(558,692)"/>
<path d="M0 0 C0.66 0 1.32 0 2 0 C1.88648483 1.81325551 1.75887039 3.62563357 1.625 5.4375 C1.55539062 6.44683594 1.48578125 7.45617187 1.4140625 8.49609375 C1.27742188 9.32238281 1.14078125 10.14867187 1 11 C0.01 11.495 0.01 11.495 -1 12 C-1.14285714 3.42857143 -1.14285714 3.42857143 0 0 Z " fill="#89C547" transform="translate(313,629)"/>
<path d="M0 0 C-2 3 -2 3 -4.9375 3.8125 C-8 4 -8 4 -11 2 C-9.54494642 1.47007308 -8.08581873 0.9513211 -6.625 0.4375 C-5.81289063 0.14746094 -5.00078125 -0.14257812 -4.1640625 -0.44140625 C-2 -1 -2 -1 0 0 Z " fill="#90CC2F" transform="translate(561,397)"/>
<path d="M0 0 C4.43379675 2.21689838 6.46636932 4.77728219 9 9 C5.18063472 7.44396229 2.73955562 5.04395069 0 2 C0 1.34 0 0.68 0 0 Z " fill="#7DB830" transform="translate(461,334)"/>
<path d="M0 0 C2.9719385 1.12451727 5.33440687 2.22293791 8 4 C8 4.99 8 5.98 8 7 C4.66272214 5.82744291 2.22562513 4.81131596 0 2 C0 1.34 0 0.68 0 0 Z " fill="#7FB52D" transform="translate(563,913)"/>
<path d="M0 0 C0.33 0.66 0.66 1.32 1 2 C-0.11678083 3.6721852 -1.24366352 5.33762803 -2.375 7 C-3.00148438 7.928125 -3.62796875 8.85625 -4.2734375 9.8125 C-4.84320312 10.534375 -5.41296875 11.25625 -6 12 C-6.66 12 -7.32 12 -8 12 C-6.59023295 8.96147295 -4.91129772 6.4060405 -2.875 3.75 C-2.06675781 2.69039062 -2.06675781 2.69039062 -1.2421875 1.609375 C-0.83226562 1.07828125 -0.42234375 0.5471875 0 0 Z " fill="#93C53B" transform="translate(697,704)"/>
<path d="M0 0 C1.09190042 3.27570125 1.28600189 5.56797729 1 9 C-0.5 10.875 -0.5 10.875 -2 12 C-3.15957207 8.52128379 -2.77456651 7.65780355 -1.5625 4.3125 C-1.13130859 3.10013672 -1.13130859 3.10013672 -0.69140625 1.86328125 C-0.46324219 1.24839844 -0.23507812 0.63351562 0 0 Z " fill="#76BE33" transform="translate(938,690)"/>
<path d="M0 0 C0.33 1.32 0.66 2.64 1 4 C-1.31 4.66 -3.62 5.32 -6 6 C-6 5.01 -6 4.02 -6 3 C-4.02 2.01 -2.04 1.02 0 0 Z " fill="#91CA2F" transform="translate(842,396)"/>
<path d="M0 0 C0 0.66 0 1.32 0 2 C0.66 2.33 1.32 2.66 2 3 C-2.21912747 2.5205537 -4.79663178 1.83374881 -8 -1 C-4.37673261 -2.2077558 -3.35853631 -1.54311128 0 0 Z " fill="#7CBB31" transform="translate(489,760)"/>
<path d="M0 0 C3.3125 0.1875 3.3125 0.1875 7 1 C8.9375 3.5625 8.9375 3.5625 10 6 C6.40992874 4.66654496 3.20429093 3.1056769 0 1 C0 0.67 0 0.34 0 0 Z " fill="#7FBB33" transform="translate(451,743)"/>
<path d="M0 0 C2.62187494 1.04874998 3.79371361 1.64931313 5.25 4.125 C5.4975 4.74375 5.745 5.3625 6 6 C5.01 6 4.02 6 3 6 C0.8125 3.5 0.8125 3.5 -1 1 C-0.67 0.67 -0.34 0.34 0 0 Z " fill="#7EB42C" transform="translate(494,615)"/>
<path d="M0 0 C0.66 0.33 1.32 0.66 2 1 C-0.64 4.63 -3.28 8.26 -6 12 C-6.33 11.01 -6.66 10.02 -7 9 C-5.56640625 6.73828125 -5.56640625 6.73828125 -3.5625 4.3125 C-2.90378906 3.50425781 -2.24507812 2.69601562 -1.56640625 1.86328125 C-1.04949219 1.24839844 -0.53257812 0.63351562 0 0 Z " fill="#8DBF3E" transform="translate(763,422)"/>
<path d="M0 0 C0.33 0.66 0.66 1.32 1 2 C0.34 2 -0.32 2 -1 2 C-1.268125 2.639375 -1.53625 3.27875 -1.8125 3.9375 C-3 6 -3 6 -6 7 C-6.66 6.34 -7.32 5.68 -8 5 C-4.04 2.525 -4.04 2.525 0 0 Z " fill="#7CB92E" transform="translate(688,916)"/>
<path d="M0 0 C0.66 0.33 1.32 0.66 2 1 C1.67 1.99 1.34 2.98 1 4 C-1.5625 5.1875 -1.5625 5.1875 -4 6 C-4.66 5.34 -5.32 4.68 -6 4 C-4.02 2.68 -2.04 1.36 0 0 Z " fill="#7DB731" transform="translate(696,911)"/>
<path d="M0 0 C0.66 0.33 1.32 0.66 2 1 C1 4 1 4 -2 6 C-4.1875 5.625 -4.1875 5.625 -6 5 C-4.02 3.35 -2.04 1.7 0 0 Z " fill="#7DB52F" transform="translate(820,826)"/>
<path d="M0 0 C3.63 0.66 7.26 1.32 11 2 C10.67 2.66 10.34 3.32 10 4 C3.375 3.375 3.375 3.375 0 0 Z " fill="#8BCC3F" transform="translate(506,765)"/>
<path d="M0 0 C0.99 0 1.98 0 3 0 C3 2.31 3 4.62 3 7 C2.01 7 1.02 7 0 7 C0 4.69 0 2.38 0 0 Z " fill="#72BC2A" transform="translate(311,641)"/>
<path d="M0 0 C1 3 1 3 0.3125 5.625 C-1 8 -1 8 -3.125 8.8125 C-3.74375 8.874375 -4.3625 8.93625 -5 9 C-3.7508258 5.54074837 -2.32472205 2.85306797 0 0 Z " fill="#71BA2D" transform="translate(753,434)"/>
<path d="M0 0 C3.875 1.875 3.875 1.875 5 3 C5.04063832 4.66617115 5.042721 6.33388095 5 8 C2.5 5.6875 2.5 5.6875 0 3 C0 2.01 0 1.02 0 0 Z " fill="#81B937" transform="translate(527,399)"/>
<path d="M0 0 C3.24299151 2.38957269 5.50902342 4.2047869 7 8 C3.18315774 6.44499019 0.80804268 3.96404505 -2 1 C-1.34 0.67 -0.68 0.34 0 0 Z " fill="#75BD2B" transform="translate(473,343)"/>
<path d="M0 0 C2.475 0.495 2.475 0.495 5 1 C5 2.32 5 3.64 5 5 C3.68 4.67 2.36 4.34 1 4 C0.67 2.68 0.34 1.36 0 0 Z " fill="#6EC330" transform="translate(790,385)"/>
<path d="M0 0 C2.5 2.3125 2.5 2.3125 5 5 C5 5.99 5 6.98 5 8 C3.0625 7.375 3.0625 7.375 1 6 C0.25 2.875 0.25 2.875 0 0 Z " fill="#8DC32C" transform="translate(511,378)"/>
<path d="M0 0 C-0.33 0.99 -0.66 1.98 -1 3 C-2.98 3 -4.96 3 -7 3 C-7.33 2.34 -7.66 1.68 -8 1 C-5.29120665 -0.35439668 -2.99066732 -0.06501451 0 0 Z " fill="#7EB32F" transform="translate(739,377)"/>
<path d="M0 0 C0.33 0 0.66 0 1 0 C0.67 3.3 0.34 6.6 0 10 C-0.66 10 -1.32 10 -2 10 C-1.85950482 8.52031676 -1.71245174 7.04125484 -1.5625 5.5625 C-1.48128906 4.73878906 -1.40007812 3.91507812 -1.31640625 3.06640625 C-1 1 -1 1 0 0 Z " fill="#90C445" transform="translate(300,342)"/>
<path d="M0 0 C0.66 0.33 1.32 0.66 2 1 C2 1.66 2 2.32 2 3 C-0.5 4.625 -0.5 4.625 -3 6 C-3.99 5.34 -4.98 4.68 -6 4 C-4.02 2.68 -2.04 1.36 0 0 Z " fill="#73BE2A" transform="translate(707,904)"/>
<path d="M0 0 C1.48199902 0.44909061 2.96055236 0.90956564 4.4375 1.375 C5.26121094 1.63023437 6.08492187 1.88546875 6.93359375 2.1484375 C9 3 9 3 10 5 C5.2482602 4.56802365 3.07999946 3.67230705 0 0 Z " fill="#7CB72E" transform="translate(506,878)"/>
<path d="M0 0 C2.31 0 4.62 0 7 0 C6.67 0.99 6.34 1.98 6 3 C4.35 3 2.7 3 1 3 C0.67 2.01 0.34 1.02 0 0 Z " fill="#7BB72C" transform="translate(581,769)"/>
<path d="M0 0 C0.66 0 1.32 0 2 0 C2.93423645 3.01031744 3.04449911 3.86650268 2 7 C0.68 6.34 -0.64 5.68 -2 5 C-1.34 3.35 -0.68 1.7 0 0 Z " fill="#90C234" transform="translate(327,579)"/>
<path d="M0 0 C0.66 0 1.32 0 2 0 C2.125 3.375 2.125 3.375 2 7 C1.34 7.66 0.68 8.32 0 9 C0 8.34 0 7.68 0 7 C-0.66 6.67 -1.32 6.34 -2 6 C-1.34 4.02 -0.68 2.04 0 0 Z " fill="#75BC2E" transform="translate(305,319)"/>
<path d="M0 0 C2.64 0 5.28 0 8 0 C8 0.66 8 1.32 8 2 C9.32 2.33 10.64 2.66 12 3 C9.18185434 4.40907283 7.82722796 3.50872691 4.875 2.5625 C3.96492188 2.27503906 3.05484375 1.98757813 2.1171875 1.69140625 C1.41851562 1.46324219 0.71984375 1.23507812 0 1 C0 0.67 0 0.34 0 0 Z " fill="#7EBC35" transform="translate(357,290)"/>
<path d="M0 0 C2.96052484 3.36423277 3.92289822 6.69159287 5 11 C4.01 11 3.02 11 2 11 C1.855625 10.113125 1.71125 9.22625 1.5625 8.3125 C1.08980022 5.52882354 0.56929815 2.76516243 0 0 Z " fill="#72BA2A" transform="translate(579,726)"/>
<path d="M0 0 C0.33 0 0.66 0 1 0 C1 2.31 1 4.62 1 7 C0.01 7 -0.98 7 -2 7 C-2.125 4.625 -2.125 4.625 -2 2 C-1.34 1.34 -0.68 0.68 0 0 Z " fill="#71BA28" transform="translate(313,669)"/>
<path d="M0 0 C1.07349791 4.29399165 0.79682816 5.19495213 -1 9 C-1.99 8.67 -2.98 8.34 -4 8 C-2.68 5.36 -1.36 2.72 0 0 Z " fill="#8DC22E" transform="translate(865,658)"/>
<path d="M0 0 C0.99 0 1.98 0 3 0 C3.1875 2.375 3.1875 2.375 3 5 C2.01 5.66 1.02 6.32 0 7 C0 4.69 0 2.38 0 0 Z " fill="#7CB731" transform="translate(940,619)"/>
<path d="M0 0 C0.99 0.33 1.98 0.66 3 1 C2.34 3.31 1.68 5.62 1 8 C-1 5 -1 5 -0.625 2.3125 C-0.41875 1.549375 -0.2125 0.78625 0 0 Z " fill="#7CB42E" transform="translate(325,585)"/>
<path d="M0 0 C0.33 0.99 0.66 1.98 1 3 C1.66 3.33 2.32 3.66 3 4 C2.01 4.495 2.01 4.495 1 5 C0.26924352 7.3140622 -0.40138258 9.64828869 -1 12 C-2.45606519 7.47907032 -1.27032841 4.48351204 0 0 Z " fill="#7EBA31" transform="translate(971,466)"/>
<path d="M0 0 C0.66 0.99 1.32 1.98 2 3 C0.02 3.33 -1.96 3.66 -4 4 C-4.33 3.01 -4.66 2.02 -5 1 C-3.35 0.67 -1.7 0.34 0 0 Z " fill="#90C837" transform="translate(614,383)"/>
<path d="M0 0 C0.66 0.33 1.32 0.66 2 1 C2 1.66 2 2.32 2 3 C0.02 3.99 0.02 3.99 -2 5 C-2.99 4.34 -3.98 3.68 -5 3 C-2.625 1.4375 -2.625 1.4375 0 0 Z " fill="#7DB72B" transform="translate(647,940)"/>
<path d="M0 0 C0.66 0.33 1.32 0.66 2 1 C0.625 3 0.625 3 -1 5 C-1.66 5 -2.32 5 -3 5 C-3.33 5.66 -3.66 6.32 -4 7 C-4 4 -4 4 -2 1.8125 C-1.34 1.214375 -0.68 0.61625 0 0 Z " fill="#A2CE32" transform="translate(883,773)"/>
<path d="M0 0 C0.99 0 1.98 0 3 0 C5.125 4.625 5.125 4.625 4 8 C1.10067643 5.60490662 0.49831724 3.68754757 0 0 Z " fill="#85BB28" transform="translate(591,759)"/>
<path d="M0 0 C1.98 0.99 3.96 1.98 6 3 C6 3.66 6 4.32 6 5 C4.35 4.67 2.7 4.34 1 4 C0.67 2.68 0.34 1.36 0 0 Z " fill="#8AC636" transform="translate(460,746)"/>
<path d="M0 0 C2.31 0.66 4.62 1.32 7 2 C7.33 3.32 7.66 4.64 8 6 C4.08597051 4.73058503 2.20927127 3.48832306 0 0 Z " fill="#7BC12D" transform="translate(442,736)"/>
<path d="M0 0 C0.66 0.66 1.32 1.32 2 2 C-0.97 4.475 -0.97 4.475 -4 7 C-4 4 -4 4 -2 1.8125 C-1.34 1.214375 -0.68 0.61625 0 0 Z " fill="#80BF2F" transform="translate(922,729)"/>
<path d="M0 0 C0 3.15084005 -0.45473667 4.33871316 -2 7 C-2.66 7.66 -3.32 8.32 -4 9 C-4.8125 7.3125 -4.8125 7.3125 -5 5 C-2.5625 2.25 -2.5625 2.25 0 0 Z " fill="#8CC42E" transform="translate(712,684)"/>
<path d="M0 0 C1.65 0 3.3 0 5 0 C2.63707344 2.52588702 1.33537489 3.88820837 -2 5 C-1.34 3.35 -0.68 1.7 0 0 Z " fill="#9ACA33" transform="translate(768,636)"/>
<path d="M0 0 C-0.33 0.66 -0.66 1.32 -1 2 C-4.0625 2.625 -4.0625 2.625 -7 3 C-7.33 2.34 -7.66 1.68 -8 1 C-4.93251126 -0.86240388 -3.40254489 -1.2151946 0 0 Z " fill="#93C233" transform="translate(868,597)"/>
<path d="M0 0 C1.98 1.65 3.96 3.3 6 5 C4.68 5.33 3.36 5.66 2 6 C1.01 4.35 0.02 2.7 -1 1 C-0.67 0.67 -0.34 0.34 0 0 Z " fill="#85BD30" transform="translate(422,557)"/>
<path d="M0 0 C1.32 0.33 2.64 0.66 4 1 C4.33 2.98 4.66 4.96 5 7 C4.34 7 3.68 7 3 7 C2.01 4.69 1.02 2.38 0 0 Z " fill="#84B243" transform="translate(376,494)"/>
<path d="M0 0 C1 2 1 2 0.0625 5.125 C-0.288125 6.07375 -0.63875 7.0225 -1 8 C-1.99 8 -2.98 8 -4 8 C-2.87548273 5.0280615 -1.77706209 2.66559313 0 0 Z " fill="#73BD2C" transform="translate(746,445)"/>
<path d="M0 0 C0.33 0.66 0.66 1.32 1 2 C-0.3125 3.5 -0.3125 3.5 -2 5 C-2.99 5 -3.98 5 -5 5 C-5 4.01 -5 3.02 -5 2 C-3.35 1.34 -1.7 0.68 0 0 Z " fill="#8DC029" transform="translate(859,389)"/>
<path d="M0 0 C-2.35953094 2.35953094 -3.77895617 2.49141413 -7 3 C-7 2.01 -7 1.02 -7 0 C-4.3333581 -1.33332095 -2.83319697 -0.67102033 0 0 Z " fill="#7EB630" transform="translate(869,388)"/>
<path d="M0 0 C1.32 0.33 2.64 0.66 4 1 C4 1.66 4 2.32 4 3 C0.67465243 4.10844919 -1.62182575 3.84454356 -5 3 C-5 2.67 -5 2.34 -5 2 C-3.35 2 -1.7 2 0 2 C0 1.34 0 0.68 0 0 Z " fill="#8CC32A" transform="translate(762,379)"/>
<path d="M0 0 C0.66 0.33 1.32 0.66 2 1 C2 2.65 2 4.3 2 6 C1.01 6 0.02 6 -1 6 C-1.042721 4.33388095 -1.04063832 2.66617115 -1 1 C-0.67 0.67 -0.34 0.34 0 0 Z " fill="#88C435" transform="translate(972,370)"/>
<path d="" fill="#FFFF00" transform="translate(0,0)"/>
<path d="" fill="#FFFF00" transform="translate(0,0)"/>
<path d="" fill="#FFFF00" transform="translate(0,0)"/>
</svg>
